<?xml version="1.0" encoding="utf-8"?>
<!-- Generator: Adobe Illustrator 25.4.1, SVG Export Plug-In . SVG Version: 6.00 Build 0)  -->
<svg version="1.1" id="Layer_1" xmlns="http://www.w3.org/2000/svg" xmlns:xlink="http://www.w3.org/1999/xlink" x="0px" y="0px"
	 viewBox="0 0 4000 4000" style="enable-background:new 0 0 4000 4000;" xml:space="preserve">
<style type="text/css">
	.st0{fill:#83D5F0;}
	.st1{fill-rule:evenodd;clip-rule:evenodd;fill:#83D5F0;}
	.st2{fill-rule:evenodd;clip-rule:evenodd;}
	.st3{fill-rule:evenodd;clip-rule:evenodd;fill:#16B0E3;}
	.st4{fill-rule:evenodd;clip-rule:evenodd;fill:#FFFFFF;}
	.st5{fill-rule:evenodd;clip-rule:evenodd;fill:#1180A5;}
	.st6{fill-rule:evenodd;clip-rule:evenodd;fill:#135A72;}
	.st7{fill-rule:evenodd;clip-rule:evenodd;fill:#083C4D;}
	.st8{fill-rule:evenodd;clip-rule:evenodd;fill:#1E8DB2;}
	.st9{fill-rule:evenodd;clip-rule:evenodd;fill:#55C5EB;}
</style>
<g>
	<path class="st0" d="M267.73,555.2c-2.17,1.8-4.86,2.55-7.46,2.31c-2.6-0.24-5.11-1.47-6.91-3.64c-1.8-2.17-2.55-4.86-2.31-7.46
		c0.24-2.6,1.47-5.11,3.64-6.91c2.17-1.8,4.86-2.55,7.46-2.31c2.6,0.24,5.11,1.47,6.91,3.64c1.8,2.17,2.55,4.86,2.31,7.46
		C271.12,550.89,269.89,553.4,267.73,555.2L267.73,555.2z M260.29,557.3c2.55,0.23,5.18-0.5,7.3-2.27s3.33-4.22,3.56-6.77
		s-0.5-5.18-2.27-7.3c-1.76-2.12-4.22-3.33-6.77-3.56c-2.55-0.23-5.18,0.5-7.3,2.27c-2.12,1.76-3.33,4.22-3.56,6.77
		c-0.23,2.55,0.5,5.18,2.27,7.3S257.74,557.07,260.29,557.3L260.29,557.3z"/>
	<path class="st0" d="M268.27,555.85c-2.35,1.95-5.26,2.77-8.08,2.51c-2.82-0.26-5.53-1.59-7.48-3.94
		c-1.95-2.35-2.77-5.26-2.51-8.08c0.26-2.82,1.59-5.53,3.94-7.48c2.35-1.95,5.26-2.77,8.08-2.51c2.82,0.26,5.53,1.59,7.48,3.94
		c1.95,2.35,2.77,5.26,2.51,8.08S270.61,553.9,268.27,555.85L268.27,555.85z M260.2,558.27c2.79,0.26,5.69-0.55,8.01-2.49
		c2.33-1.94,3.65-4.63,3.91-7.43c0.26-2.79-0.55-5.69-2.49-8.01c-1.94-2.33-4.63-3.65-7.43-3.91s-5.69,0.55-8.01,2.49
		c-2.33,1.94-3.65,4.63-3.91,7.43c-0.26,2.79,0.55,5.69,2.49,8.01C254.71,556.69,257.4,558.01,260.2,558.27L260.2,558.27z"/>
	<path class="st1" d="M270.71,553.32c-0.09,0.08-0.23,0.06-0.3-0.03c-0.08-0.09-0.06-0.23,0.03-0.3c0.09-0.08,0.23-0.06,0.3,0.03
		S270.8,553.24,270.71,553.32L270.71,553.32z"/>
	<path class="st1" d="M271.24,545.2c-0.17,0.14-0.41,0.12-0.55-0.05c-0.14-0.17-0.12-0.41,0.05-0.55c0.17-0.14,0.41-0.12,0.55,0.05
		S271.4,545.06,271.24,545.2L271.24,545.2z"/>
	<path class="st1" d="M250.36,548.38c-0.11,0.09-0.27,0.07-0.35-0.03c-0.09-0.11-0.07-0.27,0.03-0.35c0.11-0.09,0.27-0.07,0.35,0.03
		C250.48,548.13,250.47,548.29,250.36,548.38L250.36,548.38z"/>
	<path class="st1" d="M252.15,551.7c-0.12,0.1-0.29,0.08-0.38-0.04c-0.1-0.12-0.08-0.29,0.04-0.38c0.12-0.1,0.29-0.08,0.38,0.04
		C252.28,551.43,252.26,551.6,252.15,551.7L252.15,551.7z"/>
	<path class="st1" d="M255.04,546.49c0,0,1.08-0.71,1.04-0.75S256.06,545.62,255.04,546.49L255.04,546.49z"/>
	<polygon class="st1" points="260.55,556.14 260.54,555.98 260.38,555.93 260.55,555.93 260.59,555.77 260.6,555.93 260.76,555.97 
		260.59,555.98 260.55,556.14 	"/>
	<polygon class="st1" points="252.43,546.21 252.39,545.99 252.18,545.96 252.39,545.93 252.43,545.71 252.46,545.93 252.68,545.96 
		252.46,545.99 252.43,546.21 	"/>
	<path class="st1" d="M267.4,547.65c-0.11,0.01-0.2-0.07-0.21-0.18c-0.01-0.11,0.07-0.2,0.18-0.21c0.11-0.01,0.2,0.07,0.21,0.18
		C267.58,547.55,267.5,547.64,267.4,547.65L267.4,547.65z"/>
	<path class="st1" d="M267.73,542.36c-0.07,0.01-0.14-0.05-0.14-0.12c-0.01-0.07,0.05-0.14,0.12-0.14s0.14,0.05,0.14,0.12
		C267.86,542.29,267.81,542.35,267.73,542.36L267.73,542.36z"/>
	<path class="st1" d="M268.95,547.09c-0.05,0-0.09-0.03-0.09-0.08c0-0.05,0.03-0.09,0.08-0.09c0.05,0,0.09,0.03,0.09,0.08
		C269.03,547.04,269,547.08,268.95,547.09L268.95,547.09z"/>
	<path class="st1" d="M269.48,544.32c-0.07,0.01-0.13-0.04-0.13-0.11s0.04-0.13,0.11-0.13c0.07-0.01,0.13,0.04,0.13,0.11
		C269.59,544.25,269.54,544.31,269.48,544.32L269.48,544.32z"/>
	<path class="st1" d="M266.71,545.92c-0.03,0-0.06-0.02-0.06-0.05c0-0.03,0.02-0.06,0.05-0.06c0.03,0,0.06,0.02,0.06,0.05
		C266.76,545.9,266.74,545.92,266.71,545.92L266.71,545.92z"/>
	<path class="st1" d="M266.76,548.68c-0.04,0-0.07-0.03-0.08-0.06c0-0.04,0.03-0.07,0.06-0.08c0.04,0,0.07,0.03,0.08,0.06
		S266.79,548.68,266.76,548.68L266.76,548.68z"/>
	<path class="st1" d="M265.64,549.26c-0.04,0-0.07-0.03-0.08-0.06s0.03-0.07,0.06-0.08c0.04,0,0.07,0.03,0.08,0.06
		S265.68,549.26,265.64,549.26L265.64,549.26z"/>
	<path class="st1" d="M264.26,550.48c-0.06,0.01-0.12-0.04-0.12-0.1c-0.01-0.06,0.04-0.12,0.1-0.12c0.06-0.01,0.12,0.04,0.12,0.1
		S264.32,550.48,264.26,550.48L264.26,550.48z"/>
	<path class="st1" d="M267.62,550.18c-0.05,0-0.1-0.03-0.1-0.09c0-0.05,0.03-0.1,0.09-0.1c0.05,0,0.1,0.03,0.1,0.09
		C267.72,550.13,267.68,550.18,267.62,550.18L267.62,550.18z"/>
	<path class="st1" d="M264.26,551.31c-0.02,0-0.04-0.01-0.04-0.04c0-0.02,0.01-0.04,0.04-0.04c0.02,0,0.04,0.01,0.04,0.04
		C264.3,551.29,264.28,551.31,264.26,551.31L264.26,551.31z"/>
	<path class="st1" d="M255.75,553.9c-0.08,0.01-0.16-0.06-0.17-0.14c-0.01-0.08,0.06-0.16,0.14-0.17c0.08-0.01,0.16,0.06,0.17,0.14
		C255.89,553.81,255.83,553.89,255.75,553.9L255.75,553.9z"/>
	<path class="st1" d="M253.42,548.01c-0.06,0.01-0.11-0.04-0.12-0.1s0.04-0.11,0.1-0.12c0.06-0.01,0.11,0.04,0.12,0.1
		S253.48,548.01,253.42,548.01L253.42,548.01z"/>
	<path class="st1" d="M253.73,545.14c-0.06,0.01-0.11-0.04-0.12-0.1c-0.01-0.06,0.04-0.11,0.1-0.12c0.06-0.01,0.11,0.04,0.12,0.1
		C253.83,545.08,253.79,545.14,253.73,545.14L253.73,545.14z"/>
	<path class="st1" d="M256.59,549.86c-0.04,0-0.08-0.03-0.08-0.07c0-0.04,0.03-0.08,0.07-0.08c0.04,0,0.08,0.03,0.08,0.07
		C256.66,549.83,256.63,549.86,256.59,549.86L256.59,549.86z"/>
	<path class="st1" d="M254.51,549.94c-0.04,0-0.08-0.03-0.08-0.07c0-0.04,0.03-0.08,0.07-0.08c0.04,0,0.08,0.03,0.08,0.07
		C254.58,549.9,254.55,549.94,254.51,549.94L254.51,549.94z"/>
	<path class="st1" d="M258.55,552.5c-0.06,0.01-0.11-0.04-0.12-0.1c-0.01-0.06,0.04-0.11,0.1-0.12c0.06-0.01,0.11,0.04,0.12,0.1
		C258.66,552.44,258.61,552.49,258.55,552.5L258.55,552.5z"/>
	<path class="st1" d="M256.92,552.23c-0.09,0.01-0.17-0.06-0.17-0.15c-0.01-0.09,0.06-0.17,0.15-0.17c0.09-0.01,0.17,0.06,0.17,0.15
		C257.08,552.15,257.01,552.22,256.92,552.23L256.92,552.23z"/>
	<path class="st1" d="M256.9,553.35c-0.04,0-0.07-0.03-0.08-0.06c0-0.04,0.03-0.07,0.06-0.08c0.04,0,0.07,0.03,0.08,0.06
		C256.97,553.32,256.94,553.35,256.9,553.35L256.9,553.35z"/>
	<path class="st1" d="M255.45,551.78c-0.05,0-0.1-0.04-0.11-0.09c0-0.05,0.04-0.1,0.09-0.11c0.05,0,0.1,0.04,0.11,0.09
		C255.54,551.73,255.5,551.78,255.45,551.78L255.45,551.78z"/>
	<path class="st1" d="M264.91,553.08c-0.07,0.01-0.14-0.05-0.15-0.12c-0.01-0.07,0.05-0.14,0.12-0.15c0.07-0.01,0.14,0.05,0.15,0.12
		S264.99,553.07,264.91,553.08L264.91,553.08z"/>
	<path class="st1" d="M266.42,552.11c-0.04,0-0.08-0.03-0.09-0.07c0-0.04,0.03-0.08,0.07-0.09s0.08,0.03,0.09,0.07
		C266.5,552.07,266.46,552.11,266.42,552.11L266.42,552.11z"/>
	<path class="st1" d="M268.14,552.32c-0.04,0-0.08-0.03-0.09-0.07c0-0.04,0.03-0.08,0.07-0.09c0.04,0,0.08,0.03,0.09,0.07
		S268.18,552.31,268.14,552.32L268.14,552.32z"/>
	<path class="st1" d="M265.29,555.25c-0.04,0-0.08-0.03-0.09-0.07c0-0.04,0.03-0.08,0.07-0.09c0.04,0,0.08,0.03,0.09,0.07
		C265.36,555.21,265.33,555.25,265.29,555.25L265.29,555.25z"/>
	<path class="st1" d="M258.49,555.12c-0.04,0-0.08-0.03-0.09-0.07c0-0.04,0.03-0.08,0.07-0.09c0.04,0,0.08,0.03,0.09,0.07
		C258.57,555.08,258.54,555.12,258.49,555.12L258.49,555.12z"/>
	<path class="st1" d="M269.15,549.06l-0.09,0.01c-0.06,0.01-0.13,0.03-0.19,0.04c-0.17,0.04-0.34,0.1-0.5,0.17
		c-0.5,0.22-0.96,0.53-1.35,0.92c0.08-0.01,0.16-0.03,0.19-0.03c0.08-0.02,0.31-0.23,0.38-0.29c0.12-0.11,0.25-0.23,0.36-0.34
		c0.25-0.27,0.75,0.14,0.82,0.41c0.04,0.15-0.04,0.34-0.11,0.47c-0.02,0.03-0.04,0.07-0.06,0.1c0.05,0,0.1,0,0.15-0.01
		c0.13-0.01,0.26-0.01,0.39-0.01c0.16,0,0.35,0.08,0.48,0.18c0.19,0.14,0.32,0.36,0.26,0.61c-0.04,0.17-0.15,0.3-0.31,0.35
		c0.04,0.06,0.07,0.12,0.09,0.16c0.07,0.16,0.1,0.34,0.02,0.5c-0.07,0.14-0.19,0.22-0.34,0.24c-0.02,0-0.05,0-0.07,0
		c-0.01,0.04-0.02,0.08-0.04,0.11c-0.07,0.13-0.19,0.23-0.34,0.25c-0.11,0.02-0.22,0-0.32-0.06c0,0-0.01,0-0.01-0.01
		c-0.01,0.02-0.03,0.04-0.04,0.06l0.03,0.03l-0.05-0.01c0,0,0,0,0,0c-0.11,0.12-0.26,0.16-0.42,0.15c-0.36-0.03-0.74-0.5-0.97-0.76
		c-0.01-0.02-0.07-0.07-0.1-0.08c-0.02,0-0.04,0.02-0.06,0.02c-0.04,0.02-0.09,0.04-0.14,0.05c-0.03,0.01-0.05,0.02-0.07,0.04
		c-0.02,0.02-0.03,0.04-0.05,0.06c-0.03,0.04-0.06,0.07-0.09,0.1c-0.18,0.17-0.42,0.1-0.63,0.02c-0.02-0.01-0.05-0.02-0.07-0.02
		c-0.07-0.01-0.14-0.01-0.2,0c-0.02,0-0.04,0.01-0.06,0.01c-0.02,0.06-0.04,0.14-0.05,0.18c-0.02,0.09-0.04,0.19-0.06,0.28
		l-0.01,0.07l-0.07,0.03c-0.09,0.04-0.22,0.1-0.32,0.13c0,0.01,0,0.03,0,0.04c0.1,0.07,0.39,0.19,0.46,0.2
		c0.16,0,0.37,0.07,0.5,0.17c0.01-0.01,0.02-0.02,0.03-0.02c0.04-0.03,0.08-0.05,0.13-0.07c0.1-0.04,0.21-0.05,0.32-0.02
		c0.04,0.01,0.08,0.03,0.12,0.05c0.03-0.02,0.05-0.04,0.07-0.05c0.07-0.05,0.14-0.11,0.21-0.16c0.07-0.05,0.15-0.11,0.23-0.15
		c0.14-0.08,0.32-0.1,0.48-0.09c0.25,0.03,0.47,0.16,0.56,0.41c0.02,0.06,0.03,0.11,0.03,0.17c0.01,0.18-0.08,0.38-0.2,0.55
		c0.01,0,0.03,0,0.04,0c0.27,0.03,0.55,0.08,0.82,0.15c0.29,0.07,0.57,0.22,0.77,0.46c0.02,0.02,0.03,0.04,0.04,0.06l0.04,0.06
		c0.1,0.16,0.15,0.35,0.11,0.54c-0.03,0.19-0.16,0.33-0.35,0.35c-0.01,0-0.02,0-0.03,0c0,0.01,0,0.02-0.01,0.03l-0.02,0.07
		c-0.02,0.07-0.07,0.14-0.12,0.19c-0.1,0.1-0.22,0.13-0.35,0.12c0,0.11-0.05,0.21-0.14,0.27c-0.11,0.09-0.25,0.1-0.38,0.08
		c-0.13-0.03-0.25-0.11-0.35-0.2c-0.04-0.03-0.08-0.07-0.12-0.11c-0.11,0.09-0.3,0.08-0.42,0.06c-0.09-0.02-0.18-0.05-0.25-0.1
		c-0.11-0.08-0.24-0.16-0.36-0.23c-0.04,0.05-0.09,0.09-0.13,0.12c-0.14,0.09-0.39,0.02-0.55,0c-0.14-0.02-0.28-0.03-0.42-0.03
		c-0.09,0-0.17,0.01-0.26,0.03c-0.12,0.02-0.24,0.03-0.36,0.03c-0.33,0-0.56-0.11-0.84-0.25c-0.06-0.03-0.17-0.06-0.23-0.07
		c-0.1-0.03-0.2-0.05-0.3-0.07c-0.05,0.06-0.11,0.11-0.17,0.15c-0.24,0.2-0.53,0.32-0.84,0.33c-0.08,0-0.15,0-0.23-0.01
		c-0.32-0.04-0.62-0.17-0.9-0.31c-0.24-0.12-0.5-0.25-0.76-0.32c-0.28-0.07-0.56-0.13-0.85-0.19c-0.14,0.13-0.28,0.25-0.44,0.35
		c-0.07,0.04-0.14,0.09-0.22,0.13c0,0.05-0.01,0.1-0.03,0.13c-0.05,0.08-0.21,0.14-0.3,0.18c-0.06,0.02-0.11,0.05-0.17,0.07
		l-0.02,0.13l-0.08,0.03c-0.16,0.05-0.33,0.11-0.49,0.17c-0.16,0.06-0.42,0.07-0.6,0.07c-0.14,0-0.28,0-0.42,0
		c-0.07,0-0.17,0-0.24-0.02c-0.08-0.01-0.14-0.08-0.18-0.15c-0.97-0.08-1.72-0.57-2.13-1.47c-0.14-0.29-0.23-0.61-0.28-0.93
		c-0.02-0.1-0.03-0.21-0.04-0.31l-0.16-0.03v-0.12c0-0.03,0-0.06,0-0.09c0-0.06,0.03-0.17,0.04-0.23c0.02-0.13,0.05-0.26,0.08-0.39
		c0.04-0.2,0.08-0.4,0.12-0.59l0.03-0.16l0.31,0.1c0.32-0.63,0.85-1.06,1.52-1.28c0.25-0.08,0.58-0.15,0.87-0.16
		c-0.01-0.1,0.06-0.16,0.15-0.17c0.02,0,0.04,0,0.05,0c0.03,0,0.07,0,0.1,0c-0.01-0.04-0.02-0.08-0.03-0.12
		c-0.01-0.08,0-0.21,0.01-0.29c0.01-0.14,0.03-0.29,0.05-0.43c0.02-0.15,0.04-0.31,0.06-0.46c0.01-0.06,0.02-0.2,0.05-0.26
		c0.04-0.1,0.17-0.13,0.27-0.15c0.01,0,0.03,0,0.04-0.01c0-0.02,0-0.04,0-0.06c0-0.07,0.04-0.14,0.09-0.19l-0.04-0.24
		c-0.16-0.01-0.32-0.02-0.48-0.04c-0.42-0.04-0.85-0.12-1.25-0.24c-0.37-0.12-0.77-0.29-1.06-0.55c-0.25-0.22-0.51-0.49-0.65-0.8
		c-0.1-0.21-0.12-0.42-0.1-0.65c0.01-0.11,0.04-0.23,0.06-0.34c0.03-0.17,0.07-0.34,0.11-0.5c0.06-0.24,0.11-0.47,0.17-0.7
		c0.11-0.43,0.22-0.85,0.33-1.28c0.02-0.28,0.11-0.63,0.21-0.88c0.01-0.03,0.05-0.13,0.06-0.18c-0.02-0.04-0.03-0.07-0.04-0.12
		c-0.01-0.09,0.01-0.2,0.03-0.28c0.06-0.27,0.28-0.45,0.53-0.56c0.1-0.04,0.23-0.08,0.34-0.1c0.13-0.17,0.25-0.33,0.37-0.5
		c0.07-0.1,0.14-0.2,0.21-0.3c0.04-0.06,0.09-0.13,0.12-0.2c0.01-0.06-0.05-0.3-0.07-0.36c-0.05-0.22-0.11-0.45-0.14-0.68
		c-0.07-0.5-0.02-1.06,0.49-1.31c0.26-0.13,0.53-0.15,0.8-0.08c0.18,0.05,0.34,0.14,0.49,0.25c0.28,0.21,0.62,0.61,0.72,0.96
		c0.06,0.2,0.21,0.43,0.35,0.63c0.1-0.34,0.26-0.72,0.43-0.96c0.2-0.26,1.14-0.58,1.46-0.69c0.48-0.16,0.97-0.31,1.46-0.45
		c0.1-0.12,0.2-0.23,0.3-0.34c0.08-0.08,0.16-0.17,0.24-0.24c0.08-0.07,0.18-0.15,0.29-0.12c0.06,0.02,0.15-0.05,0.2-0.08
		c0.14-0.09,0.37-0.01,0.51,0.04c0.11,0.04,0.25,0.1,0.35,0.16c0.07,0,0.19-0.01,0.25-0.02c0.16-0.02,0.32-0.04,0.48-0.06
		c0.25-0.03,0.5-0.07,0.76-0.11c0.13-0.11,0.26-0.25,0.35-0.38c0.15-0.2,0.54-0.41,0.77-0.49c0.29-0.1,0.66-0.16,0.93,0.01
		c0.37,0.24,0.46,0.77,0.42,1.17c-0.02,0.26-0.1,0.54-0.25,0.76c-0.15,0.22-0.28,0.44-0.42,0.67c-0.08,0.13-0.15,0.27-0.23,0.4
		c-0.03,0.17-0.05,0.34-0.08,0.51c-0.02,0.13-0.05,0.27-0.13,0.38c-0.1,0.14-0.26,0.22-0.42,0.28c-0.03,0.01-0.07,0.02-0.1,0.03
		c-0.2,0.04-0.41,0-0.6-0.06c-0.16-0.05-0.31-0.12-0.46-0.2c-0.06-0.03-0.11-0.06-0.17-0.09c-0.03-0.01-0.06-0.03-0.09-0.04
		c-0.01,0.03-0.03,0.08-0.03,0.09c-0.02,0.08-0.05,0.16-0.08,0.24c-0.02,0.04-0.04,0.07-0.06,0.1c-0.16,0.22-0.55,0.2-0.81,0.14
		c-0.03,0.05-0.06,0.13-0.07,0.16c-0.05,0.12-0.11,0.23-0.23,0.3c-0.08,0.05-0.17,0.07-0.26,0.1c-0.1,0.03-0.19,0.07-0.28,0.13
		c-0.17,0.11-0.36,0.19-0.55,0.26c-0.15,0.06-0.29,0.11-0.44,0.16c-0.09,0.03-0.2,0.07-0.28,0.11c-0.03,0.06-0.03,0.25-0.04,0.31
		c0,0.2,0.01,0.41,0.02,0.62c0.02,0.33,0.06,0.66,0.11,0.99c0.51,0.49,0.77,1.12,0.79,1.82c0.01,0.23-0.01,0.52-0.07,0.77l0.03,0
		c0.17-0.12,0.36-0.22,0.55-0.3c0.18-0.08,0.37-0.13,0.57-0.17c0.13-0.02,0.25-0.03,0.37-0.05c0.23-0.03,0.5-0.03,0.74-0.02
		c0.19,0.01,0.4,0.03,0.58,0.08c0.12,0.03,0.28,0.09,0.34,0.21l0.03,0.14c0,0.1-0.02,0.2-0.08,0.28l-0.18,0.12
		c-0.01,0-0.03,0.01-0.04,0.01l-0.04,0.01l-0.04-0.02c-0.49-0.19-0.99-0.26-1.49-0.16l0.86,1.09l-0.01,0.15l0,0.1l-0.03,0.65
		c0.05,0,0.09,0.01,0.13,0.01c0.37,0.04,0.43,0.55,0.16,0.72c-0.09,0.06-0.21,0.09-0.33,0.09l-0.04,0.56l-0.03,0.44
		c0.04,0.01,0.08,0.01,0.12,0.02c0.03,0,0.07,0.01,0.11,0.02c0,0,0,0,0,0c0.03-0.09,0.1-0.15,0.18-0.19c0.1-0.04,0.2-0.03,0.3,0
		c0.39-0.41,0.84-0.76,1.35-1.02c0.35-0.18,0.71-0.29,1.09-0.37l0.05-0.01l0.05,0.03C269.24,548.64,269.21,548.87,269.15,549.06
		L269.15,549.06z M259.6,555.09c-0.05-0.02-0.09-0.04-0.14-0.06c-0.07-0.03-0.22-0.09-0.29-0.14c-0.02,0-0.04,0-0.07,0l0.02,0.33
		c0.05,0.02,0.1,0.03,0.16,0.04c0.02,0,0.04,0.01,0.05,0.02C259.42,555.23,259.51,555.16,259.6,555.09L259.6,555.09z M258.94,543.44
		c0-0.24,0.02-0.45,0.08-0.69c0.02-0.08,0.04-0.16,0.06-0.24c-0.15,0.12-0.29,0.24-0.31,0.3c-0.01,0.06-0.02,0.11-0.02,0.17
		c0,0.04,0.01,0.07,0.01,0.11c0,0.06-0.02,0.12-0.05,0.17c-0.03,0.04-0.05,0.04-0.04,0.09c0,0.05,0.01,0.15,0.02,0.24
		c0.03-0.02,0.06-0.04,0.09-0.06c0.05-0.03,0.1-0.06,0.14-0.09C258.92,543.45,258.93,543.45,258.94,543.44L258.94,543.44z"/>
	<path class="st2" d="M267.92,538.93c0.1-0.16,0.33-0.6,0.67-1.1c0.33-0.49,0.32-1.44-0.13-1.73c-0.45-0.29-1.34,0.22-1.5,0.44
		c-0.16,0.23-0.41,0.43-0.41,0.43s-1.52,0.24-1.6,0.18c-0.09-0.05-0.59-0.29-0.73-0.2c-0.14,0.09-0.21,0.13-0.32,0.1
		c-0.11-0.03-0.71,0.69-0.71,0.69s-2.6,0.72-2.88,1.1c-0.28,0.38-0.48,1.18-0.48,1.18s-0.43-0.47-0.56-0.89
		c-0.13-0.42-0.91-1.48-1.81-1.04c-0.89,0.44-0.11,2.03-0.21,2.27c-0.11,0.24-0.76,1.09-0.76,1.09s-0.7,0.09-0.81,0.56
		c-0.11,0.47,0.12,0.15-0.06,0.6c-0.18,0.45-0.2,0.85-0.2,0.85s-0.53,2-0.61,2.48c-0.09,0.48-0.21,0.88,0.64,1.66s2.82,0.8,2.82,0.8
		l0.08,0.44c0,0-0.1,0.08-0.1,0.14c0,0.06,0,0.19,0,0.19s-0.3,0.02-0.32,0.08c-0.02,0.05-0.18,1.21-0.16,1.36
		c0.02,0.15,0.12,0.3,0.12,0.3s-0.4-0.02-0.39-0.01s0.01,0.16,0.01,0.16s-1.77-0.09-2.46,1.46l-0.28-0.09c0,0-0.24,1.11-0.24,1.18
		s0,0.09,0,0.09l0.15,0.03c0,0,0.02,2.57,2.41,2.7c0,0,0.04,0.14,0.11,0.15s0.91,0.05,1.18-0.04s0.49-0.17,0.49-0.17l0.02-0.13
		c0,0,0.44-0.16,0.47-0.21c0.03-0.05-0.01-0.58-0.1-0.6c-0.09-0.02-0.26-0.08-0.26-0.08l-0.03-0.56c0,0,0.25-0.05,0.31,0.01
		c0.05,0.06,0.75,0.32,1.19,0.48c0.44,0.16,1.68,0.46,2.1,0.44c0.42-0.02,0.49-0.18,0.57-0.19s1.2,0.22,1.4,0.32
		c0.19,0.1,0.44,0.23,0.77,0.23c0.39,0,0.44-0.12,1.06-0.03c0.16,0.02,0.37,0.08,0.45,0.02c0.09-0.05,0.17-0.18,0.17-0.18
		s0.33,0.2,0.48,0.3c0.15,0.11,0.48,0.11,0.51,0.02c0.03-0.09-0.04-0.23,0-0.17c0.04,0.06,0.35,0.41,0.58,0.46s0.35-0.1,0.34-0.21
		c-0.01-0.11-0.05-0.2-0.05-0.2s0.27,0.17,0.45-0.01c0.17-0.17,0.08-0.36,0.08-0.36s0.35,0.12,0.41-0.21
		c0.06-0.33-0.22-0.8-0.85-0.95c-0.63-0.16-1.12-0.17-1.12-0.17s0.46-0.44,0.33-0.8c-0.13-0.36-0.59-0.37-0.84-0.24
		c-0.25,0.13-0.57,0.44-0.6,0.4c-0.03-0.04-0.21-0.12-0.36-0.06s-0.19,0.17-0.31,0.08s-0.3-0.15-0.41-0.15
		c-0.11,0-0.63-0.22-0.61-0.3c0.02-0.08-0.01-0.2,0.09-0.22c0.09-0.02,0.33-0.13,0.33-0.13s0.11-0.57,0.16-0.57s0.3-0.06,0.48,0.01
		c0.19,0.08,0.35,0.12,0.47,0.01c0.12-0.11,0.12-0.19,0.28-0.23c0.16-0.04,0.22-0.19,0.43,0.04c0.21,0.23,0.58,0.69,0.87,0.71
		c0.29,0.02,0.39-0.2,0.39-0.3s0.16,0.16,0.39,0.12c0.23-0.04,0.31-0.31,0.25-0.37c-0.05-0.06,0.3,0.12,0.44-0.16
		c0.14-0.28-0.22-0.68-0.28-0.73c0,0,0.38,0.1,0.47-0.26c0.09-0.35-0.37-0.6-0.6-0.6s-0.88,0.04-0.84,0.03s0.38-0.5,0.33-0.69
		c-0.05-0.19-0.43-0.51-0.58-0.35s-0.66,0.64-0.81,0.68c-0.16,0.03-0.44,0.09-0.47-0.02c-0.04-0.11-0.34-0.35-0.52-0.27
		s-0.08,0.21-0.12,0.22s-0.51-0.07-0.51-0.07l0.04-0.58l0.06-0.7c0,0,0.23,0.03,0.38-0.06s0.14-0.43-0.09-0.45
		c-0.24-0.02-0.27-0.03-0.27-0.03l0.04-0.98l-0.99-1.25l-1.26,0.16c0,0,0.54-1.6-0.67-2.7c0,0-0.28-1.98-0.04-2.11
		c0.24-0.13,0.91-0.3,1.28-0.54c0.37-0.24,0.58-0.12,0.71-0.46s0.17-0.27,0.17-0.27s0.57,0.15,0.72-0.06
		c0.15-0.21,0.11-0.56,0.32-0.49c0.21,0.06,0.86,0.54,1.35,0.37C267.87,539.84,267.8,539.64,267.92,538.93L267.92,538.93z
		 M259.09,543.51c-0.03-0.56,0.12-0.85,0.23-1.36c0,0-0.65,0.46-0.69,0.63c-0.04,0.18-0.02,0.2-0.02,0.32s-0.11,0.11-0.1,0.27
		c0.01,0.16,0.03,0.48,0.09,0.45C258.66,543.79,259.09,543.53,259.09,543.51L259.09,543.51z"/>
	<path class="st3" d="M257.05,556.26l0-0.09l0.05-1.1c-0.57-0.07-1.06-0.61-0.97-1.21l-0.86-0.08c0,0,0.27,1.42,0.77,1.73
		c0,0-0.92-0.57-0.98-1.73l-0.26-0.05C254.81,553.74,255.1,556.27,257.05,556.26L257.05,556.26z"/>
	<path class="st4" d="M257.05,556.26l0-0.09l0-0.02c-0.18,0.01-0.64,0-1.08-0.34c-0.55-0.42-0.95-1.33-0.99-1.54
		c-0.04-0.21-0.07-0.37-0.01-0.42c0.03-0.02,0.04-0.05,0.04-0.08l-0.21-0.04C254.81,553.74,255.1,556.27,257.05,556.26
		L257.05,556.26z"/>
	<path class="st5" d="M257.07,555.9l0.04-0.83c-0.57-0.07-1.06-0.61-0.97-1.21l-0.86-0.08c0,0,0.27,1.42,0.77,1.73
		c0,0-0.03-0.02-0.07-0.05C256.3,555.72,256.69,555.89,257.07,555.9L257.07,555.9z"/>
	<path class="st6" d="M257.09,555.41l0.02-0.34c-0.57-0.07-1.06-0.61-0.97-1.21l-0.86-0.08c0,0,0,0.01,0.01,0.03
		c0.13,0.03,0.42,0.17,0.64,0.72C256.18,555.19,256.91,555.38,257.09,555.41L257.09,555.41z"/>
	<path class="st3" d="M256.13,553.75c0,0-1.41-0.16-1.41-0.21c0-0.05,0.1-0.84,0.16-0.85s1.46,0.73,1.46,0.73
		S256.09,553.56,256.13,553.75L256.13,553.75z"/>
	<path class="st4" d="M255.01,553.6c-0.17-0.03-0.28-0.05-0.28-0.06c0-0.05,0.1-0.84,0.16-0.85c0.01,0,0.03,0.01,0.07,0.02
		c-0.01,0.03-0.03,0.07-0.04,0.1c-0.03,0.06-0.05,0.16-0.05,0.23s-0.04,0.37-0.03,0.45C254.84,553.54,254.92,553.57,255.01,553.6
		L255.01,553.6z"/>
	<path class="st5" d="M256.13,553.75c0,0-0.08-0.01-0.21-0.02l0-0.06c0,0-0.72-0.08-0.78-0.17c-0.06-0.09-0.08-0.62-0.06-0.72l0,0
		c0.4,0.19,1.26,0.65,1.26,0.65S256.09,553.56,256.13,553.75L256.13,553.75z"/>
	<path class="st6" d="M256.13,553.75c0,0-0.05-0.01-0.13-0.01c-0.01-0.05-0.02-0.13-0.02-0.16c0.01-0.04-0.44-0.3-0.44-0.43
		c0-0.06-0.01-0.11-0.02-0.15c0.39,0.2,0.81,0.42,0.81,0.42S256.09,553.56,256.13,553.75L256.13,553.75z"/>
	<path class="st3" d="M258.71,556.25c0,0,0.48-3.16-1.1-3.61l0.01,0.54c0.26,0.13,0.43,0.39,0.43,0.7c0,0.25-0.12,0.48-0.31,0.62
		c-0.06,0.05-0.12,0.08-0.19,0.11c-0.09,0.03-0.18,0.05-0.27,0.05c-0.43,0-0.77-0.35-0.77-0.77c0-0.09,0.02-0.18,0.05-0.26
		l-0.2-0.06c0,0-0.04,0.77,0.25,1.07c0.29,0.31,0.93,0.33,1.24,0.07l0.06,0.11c0,0-0.23,0.19-0.37,0.2l-0.03,0.78l-0.11-0.01v-0.72
		l-0.16-0.02l-0.02,1.28c0,0.06,0.75,0.23,1.17,0l-0.02-2.44l0.05,0.02l0.15,2.37C258.56,556.28,258.7,556.25,258.71,556.25
		L258.71,556.25z"/>
	<path class="st4" d="M258.71,556.25c0,0,0-0.02,0.01-0.05l-0.16,0.04l0,0.05C258.56,556.28,258.7,556.25,258.71,556.25
		L258.71,556.25z M256.54,553.6l-0.19-0.05c0,0-0.04,0.77,0.25,1.07c0.24,0.25,0.72,0.31,1.05,0.18c-0.23,0.03-0.62,0.05-0.86-0.1
		c-0.34-0.23-0.36-0.58-0.39-0.74s0.02-0.32,0.02-0.32L256.54,553.6L256.54,553.6z M257.31,555.06l-0.08-0.01l-0.02,1.28
		c0,0.06,0.75,0.23,1.17,0l0-0.07c-0.14,0.02-0.5,0.08-0.72,0.09c-0.27,0.01-0.35-0.1-0.34-0.14
		C257.33,556.18,257.32,555.26,257.31,555.06L257.31,555.06z"/>
	<path class="st5" d="M258.72,556.13c0.07-0.57,0.29-3.1-1.11-3.5l0.01,0.54c0.26,0.13,0.43,0.39,0.43,0.7
		c0,0.25-0.12,0.48-0.31,0.62c-0.06,0.05-0.12,0.08-0.19,0.11c-0.09,0.03-0.18,0.05-0.27,0.05c-0.43,0-0.77-0.35-0.77-0.77
		c0-0.05,0.01-0.1,0.02-0.15c-0.2,0.64,0.47,1.25,1.32,0.97l-0.01,0.01l0.01-0.01l0.06,0.11c0,0-0.16,0.13-0.29,0.18
		c-0.01,0.13-0.06,0.82-0.06,0.87c0,0.05-0.14,0-0.14,0s-0.03,0.14,0.04,0.25c0.06,0.11,0.46,0.13,0.74,0.12
		c0.09,0,0.15-0.01,0.19-0.03l-0.02-2.31l0.01,0c0.01-0.03,0.09,0,0.09,0s0.05,0.44,0.06,0.59c0.01,0.15,0.08,1.64,0.08,1.64
		L258.72,556.13L258.72,556.13z"/>
	<path class="st6" d="M258.77,555.56c0.04-0.96-0.05-2.61-1.16-2.93l0.01,0.54c0.26,0.13,0.43,0.39,0.43,0.7
		c0,0.25-0.12,0.48-0.31,0.62c-0.06,0.05-0.12,0.08-0.19,0.11c-0.03,0.01-0.07,0.02-0.1,0.03c0.54,0.08,0.66-0.57,0.76-0.56
		c0.11,0.01,0.1,2.01,0.11,2.06c0.01,0.03,0.03,0.03,0.06,0.03l-0.02-2.2c-0.06-0.24-0.19-0.64,0.04-0.32
		C258.6,553.92,258.72,554.98,258.77,555.56L258.77,555.56z"/>
	<path class="st3" d="M257.28,554.56c-0.38,0-0.69-0.31-0.69-0.69s0.31-0.69,0.69-0.69c0.38,0,0.69,0.31,0.69,0.69
		S257.66,554.56,257.28,554.56L257.28,554.56z M257.27,554.41c-0.29,0-0.53-0.24-0.53-0.53c0-0.17,0.08-0.33,0.21-0.42
		c-0.12,0.1-0.19,0.24-0.19,0.4c0,0.29,0.24,0.53,0.53,0.53c0.12,0,0.23-0.04,0.31-0.1C257.51,554.36,257.4,554.41,257.27,554.41
		L257.27,554.41z M257.28,554.15c-0.15,0-0.27-0.12-0.27-0.27c0-0.15,0.12-0.27,0.27-0.27c0.15,0,0.27,0.12,0.27,0.27
		C257.56,554.03,257.43,554.15,257.28,554.15L257.28,554.15z"/>
	<path class="st5" d="M256.74,553.46c0.13-0.16,0.32-0.27,0.54-0.27c0.26,0,0.48,0.14,0.6,0.35c0.04,0.11,0.08,0.29,0.03,0.47
		c-0.08,0.27-0.25,0.38-0.3,0.38c-0.05,0-0.07-0.05-0.07-0.06c0.02-0.01,0.05-0.03,0.07-0.05c-0.01,0.01-0.02,0.02-0.03,0.02
		c0.07-0.06,0.23-0.22,0.16-0.48c0,0-0.01,0.33-0.17,0.43c0,0,0-0.12-0.03-0.26c0.02-0.04,0.03-0.08,0.03-0.13
		c0-0.15-0.12-0.27-0.27-0.27l-0.01,0c-0.1-0.06-0.23-0.09-0.4-0.05l0,0c0.02-0.03,0.05-0.06,0.09-0.09
		c-0.03,0.02-0.06,0.05-0.09,0.08C256.85,553.52,256.82,553.46,256.74,553.46L256.74,553.46z"/>
	<path class="st5" d="M258.26,552.89c0,0-0.23-0.3-0.65-0.41l0.02-1.47h0.48l0.43,1.44C258.54,552.51,258.48,552.74,258.26,552.89
		L258.26,552.89z"/>
	<path class="st6" d="M258.26,552.89c0,0-0.23-0.3-0.65-0.41l0.01-0.59c0.03,0.09,0.08,0.16,0.13,0.21c0.2,0.16,0.34,0.44,0.48,0.42
		c0.1-0.02,0.17-0.26,0.21-0.4l0.1,0.34C258.54,552.51,258.48,552.74,258.26,552.89L258.26,552.89z"/>
	<path class="st6" d="M258.6,553.29l0.25-0.36l-0.18-0.25l-0.25,0.36C258.42,553.04,258.57,553.23,258.6,553.29L258.6,553.29z"/>
	<path class="st6" d="M258.7,553.65c0,0,0.39-0.17,0.39-0.23s-0.12-0.32-0.12-0.32l-0.33,0.35L258.7,553.65L258.7,553.65z"/>
	<path class="st6" d="M258.74,554.12c0,0-0.02-0.25-0.04-0.3c-0.02-0.05,0.43-0.21,0.43-0.21l0.09,0.33
		C259.22,553.94,258.75,554.14,258.74,554.12L258.74,554.12z"/>
	<polygon class="st6" points="259.24,554.53 259.22,554.12 258.81,554.24 258.85,554.56 259.24,554.53 	"/>
	<path class="st3" d="M259.45,554.48c0,0,0.1-0.97-0.13-1.31c-0.23-0.34-0.6-0.74-0.6-0.74l-0.27-1.17c0,0,0.99,0.36,1.15,0.25
		c0.16-0.11,0.4-1.68,0.16-2.18c-0.24-0.5-1.08-0.37-1.06-0.5c0.02-0.13,0.03-0.45,0.03-0.45s1.63-0.15,2.71-0.73
		c0,0-1.35,0.34-2.58,0.42c-1.23,0.08-2.26-0.19-2.26-0.19s1.4-0.18,2.22-0.63c0,0-1.47,0.32-2.27,0.29
		c-0.81-0.03-1.32-0.45-1.4-0.89c-0.08-0.44-0.2-0.77,0.08-1.14c0.28-0.37,0.94-0.87,0.73-0.82c-0.04,0.01-0.1,0.03-0.15,0.06
		c-0.23,0.11-0.52,0.29-0.49,0.15c0.04-0.18,0.28-1.16,0.34-1.25c0.06-0.09,0.58,0.06,1.18,0.08c0.6,0.02,1.29-0.21,1.29-0.21
		s0.16,0.37,0.12,0.47c-0.04,0.1-1.37,1.27-1.48,1.64c-0.1,0.37,0.69-0.52,1.18-0.92s0.79-0.61,1.81-0.94s1.77-0.52,2.6-0.05
		c0.82,0.47,0.98,1.18,0.85,1.96c-0.13,0.77-0.56,1.32-0.9,1.53s-0.35,0.22-0.35,0.22c0.62-0.03,0.95-0.58,1.32-1.05
		c0,0,0.16,0.92,0.03,2.18c-0.13,1.26-0.73,1.34-1.03,1.74c-0.31,0.4-0.47,0.81-0.47,0.81s0.85-0.84,0.98-0.81
		c0.13,0.03,0.1,1.23-0.02,1.4c-0.11,0.18-0.6,0.03-0.6,0.03s0.39,0.24,0.55,0.58c0.16,0.34,0.73,0.53,0.94,0.89
		c0.21,0.35-0.92,0.6-1.06,0.92c-0.15,0.32-0.15,0.32-0.15,0.32s1.16-1.08,1.69-0.98c0.53,0.1,0.97,0.02,0.87,0.24
		c-0.1,0.23-0.6,0.74-0.5,0.69s0.85-0.6,1.18-0.56c0.32,0.03,0.56,0.68,0.63,1.02s0.29,1.05,0.02,1.05c-0.27,0-0.48-0.2-0.83-0.03
		c-0.35,0.18-0.98-0.26-0.98-0.26l0.95-0.11c0,0-1.88,0.01-2.29-0.33c-0.06-0.05,0.57-0.28,0.53-0.31
		c-0.19-0.19-0.45,0.13-0.62,0.24c-0.21,0.14-0.47,0.35-0.7,0.36c-0.53,0.03-1.36-0.4-1.98-0.5c-0.3-0.36-0.54-1.02-0.54-1.02
		s0.1,0.79,0.06,0.87S259.47,554.51,259.45,554.48L259.45,554.48z"/>
	<path class="st4" d="M255.61,544.87c-0.16,0.08-0.3,0.14-0.28,0.04c0.02-0.1,0.11-0.46,0.19-0.77c0.03,0.13,0.01,0.41-0.05,0.6
		C255.43,544.86,255.51,544.88,255.61,544.87L255.61,544.87z"/>
	<path class="st4" d="M260.42,547.88c-0.46,0.08-1.02,0.17-1.55,0.2c-1.23,0.08-2.26-0.19-2.26-0.19s0.5-0.06,1.08-0.21
		c-0.12,0.04-0.22,0.07-0.26,0.08c-0.1,0.02-0.27,0.1-0.19,0.19C257.3,548.03,259.74,547.92,260.42,547.88L260.42,547.88z
		 M258.1,547.4c-0.48,0.08-1.11,0.17-1.54,0.15c-0.81-0.03-1.32-0.45-1.4-0.89c-0.08-0.44-0.2-0.77,0.08-1.14
		c0.06-0.08,0.14-0.16,0.22-0.25c-0.09,0.2-0.21,0.51-0.2,0.69c0.02,0.3,0.12,0.02,0.48,0.3s0.07,0.71,0.11,0.95
		C255.88,547.43,257.64,547.36,258.1,547.4L258.1,547.4z"/>
	<path class="st5" d="M260.32,554.21c0,0,0.31-0.6,0.39-1.11c0.08-0.52,0.42-3.22,0.64-3.63c0.23-0.4,0.56-0.71,0.56-0.71
		s-1.2,5.37-1.27,5.45c-0.07,0.08-0.33,0.21-0.33,0.21S260.31,554.22,260.32,554.21L260.32,554.21z"/>
	<path class="st5" d="M255.58,543.95c0.04-0.15,0.08-0.26,0.09-0.28c0.06-0.09,0.58,0.06,1.18,0.08c0.6,0.02,1.29-0.21,1.29-0.21
		s0.16,0.37,0.12,0.47c-0.04,0.1-1.37,1.27-1.48,1.64c-0.1,0.37,0.69-0.52,1.18-0.92s0.79-0.61,1.81-0.94s1.77-0.52,2.6-0.05
		c0.82,0.47,0.98,1.18,0.85,1.96c-0.13,0.77-0.56,1.32-0.9,1.53c-0.18,0.11-0.26,0.16-0.31,0.19c-0.23,0.1-0.47,0.18-0.3,0.02
		c0.3-0.28,1.56-1.74,0.79-2.12c-0.77-0.37-2.01,0.15-1.39-0.54c0.62-0.7-2.72,0.36-3.46,0.83c-0.74,0.46-1.5,0.79-1.25,0.01
		c0.25-0.77,0.06-1.3-0.36-1.48C255.9,544.08,255.74,544.02,255.58,543.95L255.58,543.95z"/>
	<path class="st6" d="M257.29,543.72c0.45-0.06,0.85-0.18,0.85-0.18s0.16,0.37,0.12,0.47c-0.04,0.1-1.37,1.27-1.48,1.64
		c-0.1,0.37,0.69-0.52,1.18-0.92s0.79-0.61,1.81-0.94s1.77-0.52,2.6-0.05c0.82,0.47,0.98,1.18,0.85,1.96
		c-0.11,0.65-0.42,1.13-0.73,1.4c0.28-0.4,1-1.53,0.47-2.19c-0.64-0.81-1.12-0.31-1.01-0.76c0.12-0.45-2.08-0.22-2.95,0.21
		c-0.88,0.43-2.23,1.83-2.3,1.44c-0.06-0.39,1.15-1.47,0.98-1.82C257.62,543.84,257.46,543.77,257.29,543.72L257.29,543.72z"/>
	<path class="st7" d="M257.95,543.59c0.11-0.03,0.18-0.05,0.18-0.05s0.16,0.37,0.12,0.47c-0.02,0.05-0.42,0.42-0.8,0.81
		c0.15-0.23,0.33-0.52,0.45-0.75C258.01,543.84,258,543.69,257.95,543.59L257.95,543.59z M257.89,544.78
		c0.02-0.02,0.05-0.04,0.07-0.06c0.48-0.4,0.79-0.61,1.81-0.94s1.77-0.52,2.6-0.05c0.75,0.43,0.95,1.07,0.88,1.77
		c-0.02-0.22-0.07-0.46-0.15-0.7c-0.2-0.62-1.27-1.16-2.36-1.16C259.99,543.64,258.68,544.32,257.89,544.78L257.89,544.78z
		 M262.6,546.99c-0.04,0.04-0.07,0.08-0.11,0.11l0.02-0.02L262.6,546.99L262.6,546.99z"/>
	<path class="st4" d="M263.67,555.37c-0.22-0.05-0.4-0.11-0.5-0.19c-0.03-0.03,0.13-0.11,0.29-0.18c-0.08,0.05-0.17,0.13-0.1,0.22
		C263.41,555.28,263.54,555.33,263.67,555.37L263.67,555.37z M263.7,554.86c-0.19-0.18-0.44,0.14-0.61,0.25
		c-0.21,0.14-0.47,0.35-0.7,0.36c-0.01,0-0.03,0-0.04,0l0,0c0.11-0.02,0.18-0.1,0.35-0.19s0.75-0.55,0.89-0.52
		C263.7,554.78,263.71,554.84,263.7,554.86L263.7,554.86z"/>
	<path class="st5" d="M265.45,555.51l0.01,0c0,0-0.61,0-1.21-0.06c0.17-0.01,0.53-0.01,0.63-0.01c0.13,0,0.68,0.05,0.6,0.06
		C265.48,555.51,265.47,555.51,265.45,555.51L265.45,555.51z"/>
	<path class="st4" d="M265.57,555.85c-0.02,0.01-0.05,0.02-0.07,0.03c-0.35,0.18-0.98-0.26-0.98-0.26l0.1-0.01
		c0.07,0.02,0.17,0.07,0.27,0.15C265.02,555.86,265.36,555.86,265.57,555.85L265.57,555.85z"/>
	<path class="st5" d="M262.01,547.44c0.59-0.06,0.9-0.59,1.27-1.05c0,0,0.16,0.92,0.03,2.18c-0.13,1.26-0.73,1.34-1.03,1.74
		c-0.31,0.4-0.47,0.81-0.47,0.81s0.85-0.84,0.98-0.81c0.13,0.03,0.1,1.23-0.02,1.4c-0.11,0.18-0.6,0.03-0.6,0.03
		s0.39,0.24,0.55,0.58c0.16,0.34,0.73,0.53,0.94,0.89c0.21,0.35-0.92,0.6-1.06,0.92c-0.15,0.32-0.15,0.32-0.15,0.32
		s1.16-1.08,1.69-0.98c0.53,0.1,0.97,0.02,0.87,0.24c-0.1,0.23-0.6,0.74-0.5,0.69s0.85-0.6,1.18-0.56c0.32,0.03,0.56,0.68,0.63,1.02
		s0.29,1.05,0.02,1.05c-0.17,0-0.31-0.07-0.47-0.09c0.01-0.07,0.13-0.14,0.26-0.25c0.19-0.16-0.19-0.58-0.55-1.03
		c-0.35-0.45-1.3,0.33-1.31,0.28c-0.02-0.05,0.15-0.55-0.05-0.8s-1.53,0.56-2.02,0.86c-0.48,0.31-0.08-0.11,0.15-0.64
		s-0.1-0.55-0.6-0.32c-0.5,0.23-0.27,0.55-0.42,0.15c-0.15-0.4-0.18-0.95-0.23-1.71c-0.05-0.76,0.34-1.58,0.47-2.76
		c0.13-1.18,0.71-1.74,0.77-1.97s-0.45-0.12-0.45-0.12S261.94,547.48,262.01,547.44L262.01,547.44z"/>
	<path class="st6" d="M262.34,547.35c0.39-0.18,0.65-0.59,0.93-0.95c0,0,0.16,0.92,0.03,2.18c-0.13,1.26-0.73,1.34-1.03,1.74
		c-0.31,0.4-0.47,0.81-0.47,0.81s0.85-0.84,0.98-0.81c0.13,0.03,0.1,1.23-0.02,1.4c-0.11,0.18-0.6,0.03-0.6,0.03
		s0.39,0.24,0.55,0.58c0.16,0.34,0.73,0.53,0.94,0.89c0.21,0.35-0.92,0.6-1.06,0.92c-0.15,0.32-0.15,0.32-0.15,0.32
		s1.16-1.08,1.69-0.98c0.53,0.1,0.97,0.02,0.87,0.24c-0.1,0.23-0.6,0.74-0.5,0.69s0.85-0.6,1.18-0.56c0.31,0.03,0.55,0.63,0.62,0.98
		c-0.14-0.31-0.35-0.63-0.63-0.69c-0.57-0.12-1.19,0.49-1.22,0.38s0.26-0.79-0.23-0.8c-0.48-0.01-1.77,0.94-1.81,0.82
		c-0.03-0.11,0.09-0.5,0.24-0.72c0.15-0.22,0.19-0.58-0.35-1.04c-0.54-0.47-0.95-0.85-0.68-1.01c0.27-0.15,0.9-0.5,0.76-0.56
		c-0.15-0.06-1.01,0.43-1.06,0.27c-0.05-0.15,0.92-3.06,1.13-3.56C262.65,547.48,262.47,547.4,262.34,547.35L262.34,547.35z"/>
	<path class="st7" d="M262.34,547.35c0.39-0.18,0.65-0.59,0.93-0.95c0,0,0.16,0.92,0.03,2.18c-0.13,1.26-0.73,1.34-1.03,1.74
		c-0.31,0.4-0.47,0.81-0.47,0.81s0.85-0.84,0.98-0.81c0.13,0.03,0.1,1.23-0.02,1.4c-0.11,0.18-0.6,0.03-0.6,0.03
		s0.39,0.24,0.55,0.58c0.16,0.34,0.73,0.53,0.94,0.89c0.19,0.33-0.75,0.56-1.01,0.85c0.01-0.02,0.02-0.05,0.03-0.07
		c0.08-0.2,0.69-0.46,0.44-0.84c-0.26-0.38-0.94-1.3-1-1.41c-0.06-0.12,0.17-0.05,0.35-0.05c0.19,0,0.17-0.53,0.21-0.77
		s-0.72,0.23-0.89,0.32c-0.17,0.09-0.02-0.23,0.21-0.67c0.23-0.44,0.81-1.39,0.8-1.82c-0.01-0.43-0.39,0.26-0.53,0.53
		c-0.1,0.19-0.35,0.5-0.46,0.6c0.04-0.13,0.08-0.26,0.13-0.38c0.22-0.5,0.58-1.32,0.62-1.44c0.02-0.05,0-0.13-0.04-0.22
		C262.62,547.47,262.46,547.39,262.34,547.35L262.34,547.35z M262.95,554.04c0.38-0.29,0.89-0.62,1.19-0.56
		c0.53,0.1,0.97,0.02,0.87,0.24c-0.05,0.11-0.2,0.3-0.33,0.45c0.03-0.06,0.11-0.19,0.15-0.29c0.06-0.16-0.32-0.4-0.87-0.32
		C263.64,553.62,263.24,553.85,262.95,554.04L262.95,554.04z M265.08,554.06c0.23-0.13,0.47-0.23,0.61-0.22
		c0.13,0.01,0.25,0.13,0.35,0.29c-0.06-0.04-0.14-0.11-0.22-0.18C265.73,553.86,265.36,553.96,265.08,554.06L265.08,554.06z"/>
	<path class="st5" d="M259.45,554.48c0,0,0.1-0.97-0.13-1.31c-0.23-0.34-0.6-0.74-0.6-0.74l-0.27-1.17c0,0,0.99,0.36,1.15,0.25
		c0.16-0.11,0.4-1.68,0.16-2.18c-0.24-0.5-1.08-0.37-1.06-0.5c0.02-0.13,0.03-0.45,0.03-0.45s1.63-0.15,2.71-0.73
		c0,0-0.07,0.02-0.2,0.05c0.2-0.07,0.31-0.11,0.31-0.08c0,0.05-0.11,0.57-0.84,0.74c-0.73,0.17-1.18,0.1-0.73,0.45
		c0.45,0.35-0.15,2.13,0.11,2.77c0.26,0.64,0.6,1.1,0.26,0.88c-0.34-0.21-0.71-0.82-0.71-0.32c0,0.49,0.24,0.69,0.39,1.14
		c0.15,0.45,0.37,0.64,0.43,0.9c0.06,0.26,0.96,0.9,1.21,1.07c0.13,0.09,0.28,0.14,0.39,0.18c-0.51-0.09-1.16-0.39-1.67-0.48
		c-0.3-0.36-0.54-1.02-0.54-1.02s0.1,0.79,0.06,0.87S259.47,554.51,259.45,554.48L259.45,554.48z"/>
	<path class="st6" d="M259.45,554.48c0,0,0.1-0.97-0.13-1.31c-0.23-0.34-0.6-0.74-0.6-0.74l-0.27-1.17c0,0,0.99,0.36,1.15,0.25
		c0.04-0.03,0.08-0.13,0.12-0.29c0.01,0.13,0.01,0.22,0.01,0.27c0,0.25-0.44,0.19-0.62,0.17c-0.18-0.03-0.15-0.05-0.23,0.08
		c-0.08,0.13,0.31,0.9,0.52,1.29c0.21,0.39,0.17,0.63,0.36,0.9c0.05,0.07,0.09,0.13,0.12,0.19c0.03,0.24,0.07,0.64,0.04,0.7
		C259.9,554.91,259.47,554.51,259.45,554.48L259.45,554.48z M259.31,548.99c-0.3-0.09-0.61-0.07-0.6-0.15
		c0.02-0.13,0.03-0.45,0.03-0.45s1.34-0.12,2.39-0.57c-0.04,0.04-0.1,0.09-0.16,0.14c-0.12,0.1-0.74,0.3-1.21,0.44
		c-0.48,0.14-0.83,0.35-0.59,0.49C259.21,548.91,259.26,548.95,259.31,548.99L259.31,548.99z"/>
	<path class="st7" d="M259.53,551.28c0.16-0.06,0.14-0.35,0.15-0.74c0.01-0.39,0.03-1.17-0.15-1.31s-0.98-0.29-0.98-0.17
		c0,0.12-0.05,0.13,0.01,0.16c0.06,0.03,0.75,0.24,0.8,0.43c0.05,0.19,0.2,0.94,0.15,1.23c-0.05,0.3-0.22,0.43-0.22,0.43
		S259.5,551.32,259.53,551.28L259.53,551.28z"/>
	<path class="st3" d="M259.18,551.26c-0.06,0.01-0.6-0.13-0.81-0.22s-0.31-0.24-0.34-0.38c-0.01-0.04-0.01-0.17-0.02-0.33
		c0.02,0.03,0.05,0.05,0.09,0.05c0.07,0,0.14-0.09,0.14-0.2s-0.06-0.2-0.14-0.2c-0.03,0-0.06,0.02-0.08,0.04
		c0.01-0.33,0.04-0.67,0.12-0.7c0.15-0.07,0.99,0.31,1.06,0.42c0.06,0.1,0.19,1.05,0.15,1.19
		C259.33,551.07,259.18,551.27,259.18,551.26L259.18,551.26z M258.85,550.57c-0.07,0-0.14-0.09-0.14-0.2c0-0.11,0.06-0.2,0.14-0.2
		c0.07,0,0.14,0.09,0.14,0.2C258.99,550.48,258.93,550.57,258.85,550.57L258.85,550.57z"/>
	<path class="st4" d="M258.16,550.89c-0.07-0.07-0.11-0.15-0.12-0.23c-0.01-0.04-0.01-0.17-0.02-0.33c0.02,0.03,0.05,0.05,0.09,0.05
		c0,0,0.01,0,0.01,0c0,0.02,0,0.03-0.01,0.05C258.1,550.5,258.14,550.79,258.16,550.89L258.16,550.89z M258.11,549.98
		c-0.03,0-0.06,0.02-0.08,0.04c0.01-0.33,0.04-0.67,0.12-0.7c0.02-0.01,0.05-0.01,0.1-0.01l0,0
		C258.13,549.45,258.11,549.81,258.11,549.98L258.11,549.98z"/>
	<path class="st5" d="M259.18,551.26c-0.01,0-0.03,0-0.05,0c0.15-0.24,0.12-1.12-0.03-1.34c-0.17-0.24-0.24-0.31-0.39-0.4
		c-0.12-0.07-0.32-0.12-0.27-0.16c0.3,0.1,0.73,0.31,0.77,0.38c0.06,0.1,0.19,1.05,0.15,1.19
		C259.33,551.07,259.18,551.27,259.18,551.26L259.18,551.26z"/>
	<path class="st5" d="M266.64,555.9c0,0,0.23-0.41,0.27-0.7c0.04-0.29-0.26-1.06-0.32-1.13c-0.06-0.06-0.23-0.17-0.31-0.16
		c-0.08,0.01-0.16,0.03-0.15,0.1c0.01,0.07,0.43,1.15,0.43,1.35c0,0.2-0.02,0.41-0.02,0.41s0.07-0.07,0.08-0.16
		c0.01-0.08,0.02-0.15,0.02-0.15s0.05,0.13,0.04,0.21s-0.09,0.17-0.08,0.18C266.59,555.88,266.63,555.9,266.64,555.9L266.64,555.9z"
		/>
	<path class="st6" d="M266.86,555.38c0.02-0.06,0.03-0.12,0.04-0.18c0.04-0.29-0.26-1.06-0.32-1.13c-0.06-0.06-0.23-0.17-0.31-0.16
		c-0.08,0.01-0.16,0.03-0.15,0.1c0,0.04,0.14,0.42,0.26,0.76c-0.03-0.2-0.17-0.62-0.03-0.53c0.16,0.11,0.21,0.85,0.24,0.62
		c0.03-0.23-0.11-0.81,0.02-0.6c0.14,0.2,0.32,0.8,0.26,1.04C266.87,555.34,266.87,555.36,266.86,555.38L266.86,555.38z"/>
	<path class="st6" d="M266.56,554.05c-0.07-0.06-0.21-0.15-0.28-0.14c-0.08,0.01-0.16,0.03-0.15,0.1c0,0.01,0.01,0.05,0.04,0.11
		c0.04-0.05,0.11-0.1,0.24-0.06C266.48,554.09,266.53,554.08,266.56,554.05L266.56,554.05z"/>
	<path class="st5" d="M258.36,543.2c0,0-0.53,0.24-1.4,0.26c-0.87,0.02-1.27-0.04-1.21-0.2c0.06-0.16,0.08-0.33,0.16-0.42
		c0.08-0.09,0.74,0.24,0.56,0.04c-0.18-0.2-0.58-0.2-0.55-0.48c0.03-0.27-0.03-0.6,0.48-0.66c0.52-0.05,1.61,0.71,1.76,0.88
		C258.31,542.77,258.38,543.18,258.36,543.2L258.36,543.2z"/>
	<path class="st4" d="M255.94,543.41c-0.16-0.03-0.22-0.08-0.19-0.16c0.06-0.16,0.08-0.33,0.16-0.42c0.08-0.09,0.74,0.24,0.56,0.04
		c-0.18-0.2-0.58-0.2-0.55-0.48c0.03-0.24-0.02-0.52,0.31-0.62c-0.01,0.1-0.16,0.29-0.09,0.61c0.08,0.33,0.46,0.39,0.48,0.55
		c0.02,0.16-0.44,0.05-0.62,0.14C255.86,543.13,255.91,543.32,255.94,543.41L255.94,543.41z"/>
	<path class="st6" d="M258.36,543.2c0,0-0.53,0.24-1.4,0.26c-0.21,0-0.39,0-0.54,0c0.41-0.07,1.48-0.18,1.29-0.36
		c-0.23-0.21-0.54-0.34-0.25-0.34c0.26,0.01,0.29-0.35,0.09-0.59c0.3,0.19,0.55,0.38,0.62,0.45
		C258.31,542.77,258.38,543.18,258.36,543.2L258.36,543.2z M256.51,541.73c0.19,0.01,0.44,0.11,0.68,0.23
		C256.95,541.91,256.66,541.9,256.51,541.73L256.51,541.73z"/>
	<path class="st7" d="M258.36,543.2c0,0-0.16,0.07-0.46,0.14c0.07-0.06,0.17-0.16,0.22-0.27c0.06-0.14-0.03-0.41-0.1-0.58
		c0.07,0.05,0.12,0.1,0.14,0.13C258.31,542.77,258.38,543.18,258.36,543.2L258.36,543.2z"/>
	<path class="st3" d="M266.81,553.98c0,0,0.38-0.49,0.75-0.5c0.37-0.02,0.37,0.15,0.29,0.38c-0.08,0.23-0.51,0.57-0.51,0.57
		s0.71,0.15,1.41,0.3c0.7,0.15,0.9,0.52,0.81,0.69c-0.1,0.18-0.24,0.14-0.47-0.01c-0.23-0.15-0.86-0.16-0.81-0.15
		c0.06,0.01,0.64,0.18,0.81,0.29s0.18,0.34,0.02,0.39c-0.15,0.05-0.28-0.06-0.58-0.21c-0.3-0.15-0.49-0.13-0.49-0.13
		s0.61,0.19,0.68,0.52c0.06,0.33-0.17,0.28-0.29,0.17s-0.69-0.64-0.85-0.67c-0.16-0.03,0.12,0.08,0.17,0.29
		c0.05,0.21-0.13,0.25-0.28,0.06c-0.15-0.19-0.48-0.31-0.48-0.31S267.13,554.66,266.81,553.98L266.81,553.98z"/>
	<path class="st4" d="M269.58,555.36c0,0.02-0.01,0.04-0.02,0.06c-0.08,0.15-0.21,0.14-0.38,0.04c-0.02-0.08,0.07-0.02,0.2,0.01
		C269.46,555.49,269.54,555.41,269.58,555.36L269.58,555.36z"/>
	<path class="st4" d="M267.68,556.09c-0.06,0-0.13-0.03-0.2-0.12c-0.05-0.06-0.12-0.12-0.19-0.16c0.05,0.01,0.11,0.03,0.17,0.07
		C267.53,555.92,267.65,556.04,267.68,556.09L267.68,556.09z"/>
	<path class="st4" d="M268.59,556.36c-0.05-0.01-0.1-0.04-0.15-0.08c-0.09-0.08-0.44-0.41-0.67-0.57c-0.01-0.02-0.01-0.04,0-0.04
		c0.05-0.02,0.52,0.41,0.65,0.49C268.53,556.22,268.58,556.31,268.59,556.36L268.59,556.36z"/>
	<path class="st4" d="M269.12,555.94c-0.15,0.05-0.28-0.07-0.58-0.21c-0.09-0.04-0.17-0.07-0.24-0.09c-0.01-0.01-0.01-0.01,0-0.02
		c0.07-0.04,0.5,0.16,0.59,0.22C268.96,555.89,269.07,555.92,269.12,555.94L269.12,555.94z"/>
	<path class="st5" d="M267.61,555.62c-0.01,0-0.02-0.01-0.02-0.01c-0.16-0.03,0.12,0.08,0.17,0.29c0.02,0.09,0,0.14-0.04,0.17
		c0-0.08-0.04-0.21-0.1-0.23c-0.09-0.02-0.13-0.03-0.11-0.07c0.02-0.05-0.22-0.15-0.19-0.2
		C267.34,555.52,267.48,555.55,267.61,555.62L267.61,555.62z"/>
	<path class="st5" d="M268.17,555.61c-0.08-0.01-0.12-0.01-0.12-0.01s0.61,0.19,0.68,0.52c0.02,0.1,0.01,0.17-0.01,0.21
		c-0.02,0.01-0.03,0.03-0.04,0.04c-0.01,0-0.02,0.01-0.03,0.01c0.02-0.07,0.05-0.23-0.04-0.35c-0.12-0.15-0.39-0.02-0.35-0.1
		c0.04-0.08-0.24-0.25-0.32-0.28c-0.07-0.03-0.12-0.07-0.04-0.08C267.95,555.54,268.06,555.57,268.17,555.61L268.17,555.61z"/>
	<path class="st5" d="M266.81,553.98c0,0,0.38-0.49,0.75-0.5c0.37-0.02,0.37,0.15,0.29,0.38c-0.08,0.23-0.51,0.57-0.51,0.57
		s0.71,0.15,1.41,0.3c0.54,0.12,0.78,0.36,0.82,0.54c-0.01-0.01-0.02-0.02-0.03-0.03c-0.18-0.21-0.45-0.04-0.48,0.16
		c-0.24-0.13-0.84-0.15-0.78-0.14c0.06,0.01,0.64,0.18,0.81,0.29c0.15,0.1,0.17,0.28,0.08,0.36c-0.06-0.48-1.01-0.51-0.98-0.65
		c0.02-0.08,0.89-0.01,0.76-0.25c-0.13-0.23-1.53-0.38-1.7-0.33c-0.16,0.05-0.16,0.25-0.17,0.47s-0.05,0.25-0.08,0.3
		C267.03,555.14,267.04,554.48,266.81,553.98L266.81,553.98z"/>
	<path class="st6" d="M266.81,553.98c0,0,0.38-0.49,0.75-0.5c0.37-0.02,0.37,0.15,0.29,0.38c-0.08,0.23-0.51,0.57-0.51,0.57
		s0.71,0.15,1.41,0.3c0.3,0.07,0.51,0.17,0.64,0.28c-0.07,0.02-0.18,0-0.33-0.1c-0.27-0.17-1.64-0.38-1.78-0.42
		c-0.14-0.04,0.07-0.19,0.25-0.38s-0.14-0.39-0.4-0.23c-0.26,0.16-0.14,0.39-0.09,0.64c0.03,0.15,0,0.41-0.03,0.59
		C267.02,554.78,266.97,554.34,266.81,553.98L266.81,553.98z"/>
	<path class="st7" d="M266.81,553.98c0,0,0.38-0.49,0.75-0.5c0.34-0.01,0.37,0.13,0.31,0.32c-0.08-0.07-0.18-0.2-0.46-0.15
		c-0.29,0.05-0.49,0.26-0.58,0.38C266.82,554.01,266.81,554,266.81,553.98L266.81,553.98z"/>
	<path class="st5" d="M258.37,542.54c0,0-0.9-0.74-1.27-0.9c-0.37-0.16-0.45,0.02-0.32-0.16c0.13-0.18,0.56-0.73,0.68-0.76
		s0.79,0.26,0.95,0.48c0,0-0.26-0.63-0.84-0.77c0,0-0.34-1.03-0.31-1.53c0.03-0.5,0.31-0.87,1.02-0.5s0.85,1.29,1.37,1.89
		C260.86,541.68,258.82,541.67,258.37,542.54L258.37,542.54z"/>
	<path class="st6" d="M258.37,542.54c0,0-0.9-0.74-1.27-0.9c-0.37-0.16-0.45,0.02-0.32-0.16c0.09-0.13,0.35-0.46,0.53-0.64
		c0.13-0.01,0.35,0.03,0.63,0.18c0.39,0.21,0.75,0.5,0.75,0.5s-0.13-0.16-0.3-0.35c-0.06-0.13-0.32-0.62-0.82-0.74
		c0,0-0.11-0.32-0.19-0.7c0.05,0.11,0.1,0.29,0.62,0.29c0.53,0,0.64-0.44,0.53-0.86s1.46,1.64,1.32,2.28
		C259.47,541.81,258.64,542.02,258.37,542.54L258.37,542.54z"/>
	<path class="st7" d="M258.37,542.54c0,0-0.9-0.74-1.27-0.9c-0.37-0.16-0.45,0.02-0.32-0.16c0.03-0.04,0.07-0.09,0.12-0.16
		c0.35,0.08,0.8,0.25,1.01,0.46c0.32,0.3,0.91,0.21,0.78-0.01s-0.16-0.05,0.27-0.1c0.43-0.04,0.82-0.4,0.68-0.7
		c-0.12-0.25-0.24-0.53-0.1-0.5c0.21,0.39,0.35,0.76,0.31,0.97C259.47,541.81,258.64,542.02,258.37,542.54L258.37,542.54z"/>
	<path class="st5" d="M262.54,543.26c0,0-0.11-1.05-0.19-1.71c-0.08-0.66,0.16-1.26,0.19-1.16c0.03,0.1-0.03,0.69,0.08,0.76
		c0.11,0.06,1.42-0.21,1.37-0.58s-0.44-2.37-0.68-2.48s-2.64,0.45-2.97,1.13c-0.32,0.68-0.31,1.37-0.24,1.47
		c0.06,0.1,0.4,0.53-0.03,0.98c-0.44,0.45-0.45,0.55-0.5,0.76c-0.05,0.21-0.27,1.43-0.16,1.24S260.91,543.13,262.54,543.26
		L262.54,543.26z"/>
	<path class="st8" d="M261.12,538.63c-0.37,0.17-0.67,0.37-0.77,0.58c-0.32,0.68-0.31,1.37-0.24,1.47c0.06,0.1,0.4,0.53-0.03,0.98
		c-0.44,0.45-0.45,0.55-0.5,0.76c-0.01,0.04-0.03,0.12-0.05,0.22c0.23-0.13,0.66-0.46,1.1-0.91c0.55-0.58,1.16-1.5,0.67-1.59
		c-0.49-0.09,0.36-0.75,0.27-1.12C261.51,538.8,261.33,538.68,261.12,538.63L261.12,538.63z"/>
	<path class="st6" d="M262.54,543.26c0,0-0.11-1.05-0.19-1.71c-0.08-0.66,0.16-1.26,0.19-1.16c0.03,0.1-0.03,0.69,0.08,0.76
		c0.11,0.06,1.42-0.21,1.37-0.58s-0.44-2.37-0.68-2.48c-0.14-0.07-1.02,0.1-1.79,0.38c0.09,0.03,0.19,0.05,0.32,0.07
		c1.52,0.21,1.37,1.16,1.03,1.52c-0.34,0.36-0.18-0.64-0.54-0.23c-0.36,0.41-0.1,1.26-0.77,1.88c-0.45,0.42-1.41,0.85-2.06,1.08
		c-0.08,0.42-0.17,1.01-0.09,0.88C259.52,543.47,260.91,543.13,262.54,543.26L262.54,543.26z"/>
	<path class="st7" d="M262.54,543.26c0,0-0.11-1.05-0.19-1.71c-0.08-0.66,0.16-1.26,0.19-1.16c0.03,0.1-0.03,0.69,0.08,0.76
		c0.11,0.06,1.42-0.21,1.37-0.58c-0.03-0.2-0.15-0.85-0.29-1.44c0.02,0.14,0.03,0.29,0.03,0.44c0.01,0.69-0.78,1.78-0.89,1.32
		c-0.11-0.46-0.2-0.82-0.37-0.62s-0.25,1.19-0.38,1.88c-0.11,0.6-2.11,1.02-2.67,1.15c-0.04,0.26-0.06,0.46-0.01,0.37
		C259.52,543.47,260.91,543.13,262.54,543.26L262.54,543.26z"/>
	<path class="st5" d="M264.36,540.38c0,0,0.16-1.13-0.15-1.55c-0.31-0.42-0.85-0.79-0.68-1.05c0.18-0.26,0.44-0.6,0.58-0.44
		s0.08-0.05,0.24-0.11c0.16-0.06,0.55,0,0.84,0.63c0.29,0.63,0.29,1.82,0.08,1.87s-0.37-0.18-0.39,0.03
		C264.88,539.97,264.55,540.5,264.36,540.38L264.36,540.38z"/>
	<path class="st6" d="M264.36,540.38c0,0,0.16-1.13-0.15-1.55c-0.31-0.42-0.85-0.79-0.68-1.05c0.03-0.05,0.07-0.1,0.11-0.16
		c0.38,0.21,0.63,0.46,0.74,0.9c0.13,0.5,0.48,0.66,0.37,0.17c-0.1-0.49-0.35-0.95-0.1-0.8s0.52,0.48,0.45-0.12
		c0-0.03-0.01-0.06-0.01-0.09c0.03,0.05,0.06,0.11,0.09,0.18c0.29,0.63,0.29,1.82,0.08,1.87s-0.37-0.18-0.39,0.03
		C264.88,539.97,264.55,540.5,264.36,540.38L264.36,540.38z"/>
	<path class="st7" d="M264.36,540.38c0,0,0.16-1.13-0.15-1.55c-0.07-0.09-0.15-0.18-0.23-0.27c0.27,0.02,0.6,0.76,0.6,1.09
		c0,0.33,0.2-0.01,0.29-0.44s0.09,0.23,0.31,0.26c0.14,0.02,0.16-0.57,0.17-1.06c0.11,0.61,0.08,1.29-0.08,1.33
		c-0.21,0.05-0.37-0.18-0.39,0.03C264.88,539.97,264.55,540.5,264.36,540.38L264.36,540.38z"/>
	<path class="st5" d="M265.76,539.31c0,0-0.11-1.08-0.24-1.37c-0.13-0.29-0.13-0.63-0.13-0.63s0.94-0.16,1.02-0.06
		s0.06,0.76-0.1,1.05c0,0,0.52-0.5,0.44-1.16c0,0,0.5-0.58,0.79-0.73s0.81-0.42,1.06,0.4c0.26,0.82-0.87,1.74-0.97,2.19
		s-0.19,0.71-0.39,0.74s-0.87-0.31-1.1-0.34C265.93,539.38,265.78,539.34,265.76,539.31L265.76,539.31z"/>
	<path class="st6" d="M265.76,539.31c0,0-0.11-1.08-0.24-1.37c-0.13-0.29-0.13-0.63-0.13-0.63s0.94-0.16,1.02-0.06
		s0.06,0.76-0.1,1.05c0,0,0.52-0.5,0.44-1.16c0,0,0.06-0.07,0.15-0.17c0,0.11,0.08,0.24,0.33,0.38c0.61,0.35,0.89-0.54,0.99-0.3
		c0.1,0.25-0.28,1.23-0.66,1.56c-0.29,0.26-0.43,0.86-0.48,1.12c-0.28-0.07-0.75-0.29-0.93-0.32
		C265.93,539.38,265.78,539.34,265.76,539.31L265.76,539.31z"/>
	<path class="st7" d="M265.76,539.31c0,0-0.01-0.1-0.03-0.25l0-0.01l0-0.01l0-0.02l0,0l0-0.02l0-0.01l0-0.01l0-0.02l0,0l0-0.02
		l0-0.01l0-0.01l0-0.01l0,0l0-0.02l0,0l0-0.01l0-0.01l0-0.01l0-0.02l0,0l0-0.02l0-0.01l0-0.01l0-0.02l0,0l0-0.02l0-0.01l0-0.01
		l-0.01-0.04l0-0.01l0-0.01l0-0.01l0-0.01l0-0.02l0,0l0-0.02l0-0.01l0-0.01l0-0.02l0,0l0-0.03l0-0.01l0-0.02l0,0l0-0.02l0-0.01
		l0-0.01l0-0.02l0,0l0-0.02l0-0.01l0,0c0-0.02-0.01-0.04-0.01-0.05l0,0l0-0.02l0-0.01l-0.01-0.03l0,0l0-0.02l0-0.01l0-0.01l0-0.02
		l0,0l0-0.02l0-0.01l0-0.01l0-0.01l0,0l0-0.02l0,0l0,0l0-0.02l0,0l0-0.01l0-0.02l0,0l0,0l0-0.02l0-0.01l-0.01-0.02l0,0l0-0.01l0,0
		l0-0.01l0,0l0-0.01l0,0l0-0.02l0,0c0-0.01-0.01-0.02-0.01-0.03l0,0l0-0.01l0,0l-0.01-0.01l0,0l0,0l0-0.01l0,0c0,0,0-0.01-0.01-0.01
		l-0.01-0.01l0,0l0,0l0-0.01l0,0l0,0l0-0.01l0,0l0,0l0,0l0,0l0,0l0,0l0,0l0,0l0,0l0-0.01l0,0l0,0l0,0l0,0l0,0l0-0.01l0,0l0,0l0,0
		l0,0l0,0l0,0l0,0l0-0.01l0,0l0,0l0,0l0,0l0-0.01l0,0l0,0l0,0l0,0l0,0l0,0l0,0l0,0l0,0l0,0l0,0l0,0l0,0l0,0l0,0l0,0l0,0l0,0l0,0l0,0
		l0,0l0,0l0,0l0,0l0,0l0,0l0-0.01l0,0c-0.06-0.23-0.06-0.43-0.06-0.43s0.94-0.16,1.02-0.06s0.06,0.76-0.1,1.05
		c0,0,0.52-0.5,0.44-1.16c0,0,0.04-0.05,0.11-0.12c0,0.09-0.01,0.19-0.02,0.3c-0.06,0.5-0.42,1.17-0.66,1.16
		c-0.24-0.01-0.01-0.23,0.06-0.44s-0.12-0.36-0.34-0.3c-0.15,0.05-0.15,0.42-0.08,0.81c0.01,0.05,0.03,0.11,0.04,0.16
		c0.08,0.4,0.24,0.43,0.63,0.52c0.4,0.09,0.41,0.1,0.66-0.17c0.17-0.18,0.57-0.69,0.82-1.02c-0.12,0.24-0.26,0.46-0.4,0.58
		c-0.29,0.26-0.43,0.86-0.48,1.12c-0.28-0.07-0.75-0.29-0.93-0.32C265.93,539.38,265.78,539.34,265.76,539.31L265.76,539.31z"/>
	<polygon class="st6" points="264.43,553.23 264.51,551.81 263.2,551.77 263.3,552.31 264.43,553.23 	"/>
	<path class="st5" d="M264.7,551.31l0.1-2.23l0.81,0l0-1.64l-1.92,0.01c0.07,1.37-0.31,1.95-0.4,2.76l-0.01,1.11L264.7,551.31
		L264.7,551.31z M264.31,548.69c-0.27,0-0.49-0.22-0.49-0.49c0-0.27,0.22-0.49,0.49-0.49s0.49,0.22,0.49,0.49
		C264.8,548.47,264.58,548.69,264.31,548.69L264.31,548.69z M264.14,550.13c-0.27,0-0.49-0.22-0.49-0.49c0-0.27,0.22-0.49,0.49-0.49
		c0.27,0,0.49,0.22,0.49,0.49C264.63,549.91,264.41,550.13,264.14,550.13L264.14,550.13z"/>
	<path class="st6" d="M264.7,551.31l0.04-0.76l-0.53-0.31c0,0,0.37-0.05,0.41-0.42c0-0.04,0.01-0.07,0-0.1
		c-0.03,0.24-0.24,0.42-0.48,0.42c-0.27,0-0.49-0.22-0.49-0.49c0-0.27,0.22-0.49,0.49-0.49c0.02,0,0.03,0,0.05,0
		c-0.03-0.08-0.03-0.23-0.02-0.29c0.01-0.09,0.6-0.11,0.61-0.49c0-0.02,0-0.04,0-0.07c-0.05,0.22-0.24,0.38-0.48,0.38
		c-0.27,0-0.49-0.22-0.49-0.49c0-0.27,0.22-0.49,0.49-0.49s0.49,0.22,0.49,0.49c0,0.01,0,0.02,0,0.02c0.05-0.27,0.23-0.37,0.48-0.36
		c0.13,0,0.24,0.09,0.33,0.15l0-0.57l-1.92,0.01c0.07,1.37-0.31,1.95-0.4,2.76l-0.01,1.11L264.7,551.31L264.7,551.31z"/>
	<path class="st7" d="M265.62,547.32l-0.72-0.92l-0.25,0.02l0.75,0.9C265.4,547.32,265.63,547.32,265.62,547.32L265.62,547.32z"/>
	<path class="st7" d="M265.17,547.29l-0.63-0.79l-0.23,0.02l0.69,0.81C265,547.32,265.18,547.3,265.17,547.29L265.17,547.29z"/>
	<path class="st7" d="M264.69,547.25c-0.05-0.03-0.57-0.66-0.57-0.66l-0.1,0.06l0.48,0.61C264.51,547.27,264.7,547.28,264.69,547.25
		L264.69,547.25z"/>
	<path class="st7" d="M264.25,547.24l-0.34-0.48l-0.15,0.13l0.31,0.36C264.08,547.26,264.26,547.26,264.25,547.24L264.25,547.24z"/>
	<path class="st5" d="M264.76,553.05l0.17-3.29l0.6-0.01l-0.28,3.03L264.76,553.05L264.76,553.05z M265.16,551.58
		c-0.07,0-0.12-0.05-0.12-0.12s0.05-0.12,0.12-0.12c0.07,0,0.12,0.05,0.12,0.12S265.23,551.58,265.16,551.58L265.16,551.58z
		 M265.16,551.01c-0.07,0-0.12-0.05-0.12-0.12c0-0.07,0.05-0.12,0.12-0.12c0.07,0,0.12,0.05,0.12,0.12
		C265.28,550.95,265.23,551.01,265.16,551.01L265.16,551.01z M265.19,550.38c-0.07,0-0.12-0.05-0.12-0.12
		c0-0.07,0.05-0.12,0.12-0.12c0.07,0,0.12,0.05,0.12,0.12C265.31,550.32,265.26,550.38,265.19,550.38L265.19,550.38z"/>
	<path class="st6" d="M264.76,553.05l0.13-2.5l0.25,0.22c-0.06,0.01-0.1,0.06-0.1,0.12c0,0.07,0.05,0.12,0.12,0.12
		c0.07,0,0.12-0.05,0.12-0.12l0.13,0.11l-0.17,1.78L264.76,553.05L264.76,553.05z M265.16,551.58c-0.07,0-0.12-0.05-0.12-0.12
		s0.05-0.12,0.12-0.12c0.07,0,0.12,0.05,0.12,0.12S265.23,551.58,265.16,551.58L265.16,551.58z"/>
	<path class="st7" d="M265.45,549.6l-0.48,0l-0.01-0.08h0.48C265.44,549.52,265.45,549.59,265.45,549.6L265.45,549.6z"/>
	<path class="st7" d="M265.45,549.43l-0.48,0l0.01-0.12l0.46,0.01C265.44,549.33,265.44,549.43,265.45,549.43L265.45,549.43z"/>
	<path class="st5" d="M265.51,552.25c0,0,0.15-1.73,0.15-1.81s0.49-0.07,0.53-0.02c0.04,0.05,0.32,1.61,0.27,1.69
		c-0.05,0.08-0.4,0.14-0.43-0.03c-0.02-0.17-0.02-0.58-0.07-0.48c-0.06,0.1-0.03,0.53-0.1,0.56
		C265.8,552.21,265.58,552.29,265.51,552.25L265.51,552.25z"/>
	<path class="st6" d="M265.53,551.97c0.04-0.49,0.12-1.46,0.12-1.52c0-0.08,0.49-0.07,0.53-0.02c0.02,0.02,0.09,0.37,0.16,0.75
		c-0.06,0.11,0.01,0.28-0.02,0.41c-0.04,0.16-0.07-0.09-0.24-0.27c-0.17-0.18-0.53,0.65-0.53,0.65
		C265.54,551.97,265.54,551.97,265.53,551.97L265.53,551.97z"/>
	<path class="st4" d="M265.51,552.25l0-0.05c0.09,0,0.24-0.02,0.29-0.09c0.06-0.09,0.04-0.12,0.1-0.15c0.01,0,0.01,0,0.02-0.01
		c-0.01,0.11-0.02,0.2-0.05,0.21C265.8,552.21,265.58,552.29,265.51,552.25L265.51,552.25z M266.46,552.07c0,0.03,0,0.04-0.01,0.05
		c-0.05,0.08-0.4,0.14-0.43-0.03l0-0.01c0.07,0.04,0.21,0.07,0.35,0.02C266.41,552.08,266.44,552.07,266.46,552.07L266.46,552.07z"
		/>
	<path class="st6" d="M266.9,551.9c0-0.07-0.14-0.69-0.19-1.13s-0.2-0.51-0.26-0.51s-0.18-0.1-0.19,0.06
		c-0.02,0.15,0.35,1.72,0.35,1.72s0.1,0.02,0.12-0.08c0.02-0.1,0.06-0.11,0.06-0.11S266.88,551.9,266.9,551.9L266.9,551.9z"/>
	<path class="st7" d="M266.76,551.11c-0.02-0.12-0.04-0.23-0.05-0.34c-0.05-0.44-0.2-0.51-0.26-0.51s-0.18-0.1-0.19,0.06
		c-0.01,0.07,0.06,0.42,0.14,0.79C266.51,551.04,266.66,551.07,266.76,551.11L266.76,551.11z"/>
	<path class="st4" d="M266.9,551.9c0-0.01,0-0.05-0.01-0.09c-0.02-0.03-0.04-0.03-0.09-0.06c-0.07-0.03-0.1,0.07-0.15,0.16
		c-0.02,0.03-0.04,0.05-0.06,0.05l0.02,0.07c0,0,0.1,0.02,0.12-0.08c0.02-0.1,0.06-0.11,0.06-0.11S266.88,551.9,266.9,551.9
		L266.9,551.9z"/>
	<path class="st3" d="M266.93,550.62c0.1,0.04,0.35,0.06,0.52-0.14c0.16-0.2,0.56-0.69,0.73-0.64s0.33,0.27,0.24,0.39
		c-0.09,0.12-0.4,0.51-0.42,0.6s0.02,0.07,0.05,0.06c0.04-0.01,0.24-0.06,0.48-0.06c0.24-0.01,0.81-0.08,0.95,0.16
		c0.14,0.23,0.02,0.37-0.21,0.34c-0.23-0.03-0.75-0.15-0.91-0.1c-0.15,0.04-0.04,0.06-0.01,0.06s0.23-0.06,0.64,0.21
		c0.42,0.27,0.56,0.69,0.32,0.69c-0.18,0.01-0.65-0.35-0.91-0.52c-0.08-0.05-0.13-0.09-0.16-0.09c-0.13-0.03-0.27-0.07-0.27-0.07
		s0.56,0.32,0.81,0.56c0.21,0.21,0.16,0.72-0.12,0.47c-0.17-0.15-0.54-0.5-0.87-0.66c-0.1-0.05-0.16-0.03-0.16,0
		c0,0,0.54,0.29,0.64,0.49c0.1,0.2,0,0.38-0.13,0.37c-0.13-0.01-0.28-0.13-0.47-0.41c-0.2-0.27-0.54-0.4-0.54-0.4
		S266.94,550.62,266.93,550.62L266.93,550.62z"/>
	<path class="st4" d="M268.14,552.74c-0.13-0.02-0.27-0.14-0.47-0.41c-0.05-0.07-0.11-0.13-0.17-0.18c0.11,0.03,0.25,0.14,0.37,0.3
		C267.98,552.58,268.09,552.68,268.14,552.74L268.14,552.74z"/>
	<path class="st5" d="M268.03,552.01c-0.08-0.05-0.16-0.1-0.24-0.14c-0.1-0.05-0.16-0.03-0.16,0c0,0,0.54,0.29,0.64,0.49
		c0.08,0.16,0.03,0.31-0.06,0.36c-0.02-0.14-0.07-0.44-0.23-0.55c-0.21-0.14-0.52-0.25-0.46-0.34c0.06-0.09,0.23-0.03,0.41,0.1
		C267.97,551.96,268,551.99,268.03,552.01L268.03,552.01z"/>
	<path class="st5" d="M268.27,551.58c-0.01-0.01-0.02-0.01-0.03-0.01c-0.13-0.03-0.27-0.07-0.27-0.07s0.56,0.32,0.81,0.56
		c0.15,0.14,0.17,0.43,0.07,0.51c-0.01-0.17-0.16-0.51-0.28-0.55c-0.15-0.05-0.28-0.01-0.27-0.12c0.01-0.1-0.33-0.33-0.41-0.38
		c-0.08-0.05-0.21-0.08-0.06-0.1C267.93,551.42,268.1,551.48,268.27,551.58L268.27,551.58z"/>
	<path class="st5" d="M269.08,551.29c-0.26-0.04-0.6-0.11-0.72-0.07c-0.15,0.04-0.04,0.06-0.01,0.06s0.23-0.06,0.64,0.21
		c0.41,0.26,0.55,0.67,0.34,0.69c0.01-0.13-0.05-0.39-0.38-0.58c-0.43-0.25-0.86-0.17-0.83-0.29
		C268.15,551.2,268.56,551.07,269.08,551.29L269.08,551.29z"/>
	<path class="st5" d="M266.93,550.62c0.1,0.04,0.35,0.06,0.52-0.14c0.16-0.2,0.56-0.69,0.73-0.64s0.33,0.27,0.24,0.39
		c-0.09,0.12-0.4,0.51-0.42,0.6s0.02,0.07,0.05,0.06c0.04-0.01,0.24-0.06,0.48-0.06c0.24-0.01,0.81-0.08,0.95,0.16
		c0.04,0.07,0.06,0.13,0.06,0.18c-0.18-0.23-0.85-0.22-1.05-0.18c-0.21,0.05-0.77,0.09-1.01-0.08c-0.15-0.11-0.34,0.05-0.47,0.16
		C266.97,550.82,266.94,550.62,266.93,550.62L266.93,550.62z"/>
	<path class="st2" d="M260.04,554.99c0,0,0.23-0.15,1.05,0.2c0.82,0.35,1.5,0.74,1.92,0.64c0.42-0.1,0.73-0.4,0.73-0.4l0.19,0.15
		c0,0-0.38,0.55-1.03,0.58c-0.65,0.02-1.24-0.48-1.86-0.63c-0.61-0.15-1.13-0.24-1.13-0.24S260.04,555,260.04,554.99L260.04,554.99z
		"/>
	<path class="st2" d="M259.12,555.96c0,0,0.87-0.27,1.47-1.27c0.6-1,0.66-1.69,0.74-2.55c0.24-2.54,2.09-7.15,5.29-5.88
		c0,0,0.2-0.04,0.17-0.3c-0.03-0.26-1.14-0.29-1.52-0.23c-0.38,0.06-1.23,0.01-2.45,1.45c-0.66,0.78-1.06,1.7-1.35,2.49
		c-0.58,1.58-0.39,3.46-1.1,4.7c-0.7,1.22-1.52,1.24-1.52,1.24S259,555.97,259.12,555.96L259.12,555.96z"/>
	<path class="st5" d="M258.83,556.1c0,0,0.3-0.1,0.29-0.19c0-0.08-0.04-0.35-0.04-0.35s-0.21,0.05-0.2,0.07
		C258.89,555.66,258.83,556.1,258.83,556.1L258.83,556.1z"/>
	<path class="st4" d="M258.83,556.1c0,0,0.3-0.1,0.29-0.19c0-0.02,0-0.04-0.01-0.07c-0.06,0.05-0.21,0.17-0.25,0.18
		c-0.01,0-0.02,0-0.03,0.01C258.83,556.07,258.83,556.1,258.83,556.1L258.83,556.1z"/>
	<path class="st3" d="M266.54,546.13c0,0-0.06-0.07,0.01-0.15c0.07-0.08,0.11-0.09,0.11-0.09s-0.71-0.35-1.97,0.04
		c-1.27,0.39-1.98,1.5-2.22,1.89c-0.24,0.39-0.94,1.81-1.17,2.9c-0.37,1.81-0.06,4.01-2.09,4.97l0.03,0.16
		c1.98-1.1,1.91-3.04,2.09-4.69c0.17-1.56,1.3-3.65,2.26-4.42C264.58,545.92,265.8,545.69,266.54,546.13L266.54,546.13z"/>
	<path class="st2" d="M264.55,553.36c0,0,0.91-2.08,1.91-3.22c1-1.14,2.02-1.4,2.5-1.49c0,0,0.13,0.07,0.08,0.28
		c0,0-1.19,0.17-2.22,1.28s-1.96,3.25-1.96,3.25S264.53,553.38,264.55,553.36L264.55,553.36z"/>
	<path class="st3" d="M260.27,555.26c0,0,0.67,0.11,1.09,0.27c0.42,0.16,1.06,0.54,1.52,0.56c0.46,0.02,1.02-0.55,1.02-0.55
		l-0.15-0.04c0,0-0.39,0.51-0.93,0.44s-1.08-0.4-1.33-0.51c-0.25-0.11-1.11-0.33-1.11-0.33S260.27,555.25,260.27,555.26
		L260.27,555.26z"/>
	<path class="st6" d="M264.81,553.38c0,0,0.73-1.65,1.3-2.42c0.56-0.77,1.21-1.4,1.97-1.78c0.76-0.38,0.92-0.33,0.92-0.33
		l-0.05-0.12c0,0-0.57,0.04-1.6,0.71c-1.02,0.68-1.81,2.18-1.81,2.18l-0.85,1.7C264.69,553.33,264.8,553.39,264.81,553.38
		L264.81,553.38z"/>
	<path class="st4" d="M257.24,551.42l0.01-0.22c0,0-1.44,0.18-1.98,1.31l0.1,0.05C255.9,551.74,256.79,551.49,257.24,551.42
		L257.24,551.42z"/>
	<path class="st5" d="M257.22,551.84l0.01-0.24c-1.08,0.21-1.51,0.8-1.65,1.05l0.23,0.11C256.15,552.2,256.82,551.95,257.22,551.84
		L257.22,551.84z"/>
	<path class="st6" d="M257.2,552.58l0.01-0.43c-0.67,0.15-1.03,0.56-1.16,0.73l0.38,0.18C256.44,553.06,256.57,552.74,257.2,552.58
		L257.2,552.58z"/>
	<path class="st7" d="M264.31,548.58c-0.21,0-0.38-0.17-0.38-0.38c0-0.21,0.17-0.38,0.38-0.38c0.21,0,0.38,0.17,0.38,0.38
		C264.69,548.41,264.52,548.58,264.31,548.58L264.31,548.58z M264.31,548.36c-0.09,0-0.16-0.07-0.16-0.16
		c0-0.09,0.07-0.16,0.16-0.16s0.16,0.07,0.16,0.16C264.47,548.28,264.4,548.36,264.31,548.36L264.31,548.36z"/>
	<path class="st7" d="M264.14,550.02c-0.21,0-0.38-0.17-0.38-0.38s0.17-0.38,0.38-0.38c0.21,0,0.38,0.17,0.38,0.38
		S264.35,550.02,264.14,550.02L264.14,550.02z M264.14,549.8c-0.09,0-0.16-0.07-0.16-0.16c0-0.09,0.07-0.16,0.16-0.16
		c0.09,0,0.16,0.07,0.16,0.16C264.3,549.73,264.23,549.8,264.14,549.8L264.14,549.8z"/>
	<path class="st7" d="M266.13,548.66c0,0.03-0.02,0.09-0.13,0.12c-0.11,0.04-0.28,0.01-0.28,0.01l-0.01-0.33
		c0,0,0.34-0.01,0.34,0.01s0,0.06,0,0.06s-0.11-0.04-0.12,0.06C265.91,548.69,266.09,548.67,266.13,548.66L266.13,548.66z"/>
	<path class="st5" d="M257.15,553.71c0.03-0.02,0.07-0.04,0.12-0.04c0.12,0,0.21,0.09,0.21,0.21c0,0.06-0.03,0.12-0.07,0.16
		c0.06-0.04,0.09-0.1,0.09-0.18c0-0.12-0.09-0.21-0.21-0.21C257.24,553.65,257.19,553.67,257.15,553.71L257.15,553.71z"/>
	<path class="st9" d="M258.9,547.69c0.62,0.01,2.15-0.13,2.77-0.8c0.62-0.67,0.77-1.26,0.18-0.94c-0.59,0.32-1.93,1.23-2.57,1.41
		C258.66,547.53,258.44,547.7,258.9,547.69L258.9,547.69z"/>
	<path class="st9" d="M260.77,546.14c-0.13,0.17-3.79,1.32-3.07,0.95c0.72-0.36,1.32-0.59,0.71-0.57c-0.61,0.03-2.73,0.67-2.04,0.05
		c0.7-0.62,3.93-2.1,4.15-1.65c0.22,0.45-0.52,0.9,0.27,0.74C261.59,545.49,261.28,545.88,260.77,546.14L260.77,546.14z"/>
	<path class="st9" d="M260.63,552.25c-0.13-0.15-0.52-0.72-0.37-1.35c0.14-0.63,0.23-1.48,0.19-1.84s0.1-0.3,0.57-0.58
		c0.46-0.28,0.71-0.75,0.79-0.55c0.08,0.19,0.18,0.52-0.14,0.66c-0.32,0.14-0.88,1.12-0.86,1.44
		C260.81,550.34,260.8,551.94,260.63,552.25L260.63,552.25z"/>
	<path class="st9" d="M262.27,555.18c0.09-0.18,1.02-0.86,1.4-0.92c0.38-0.06,0.53,0.2,0.24,0.28s-1.08,0.6-1.39,0.68
		C262.21,555.3,262.05,555.35,262.27,555.18L262.27,555.18z"/>
	<path class="st9" d="M265.82,555.35c-0.12-0.39-0.48-0.71-0.7-0.62c-0.23,0.09-1.23,0.48-1.09,0.48c0.15,0,1.68-0.19,1.44-0.04
		C265.24,555.32,265.59,555.43,265.82,555.35L265.82,555.35z"/>
	<path class="st9" d="M261.8,554.72c0.16-0.2,0.53-0.78,0.33-0.76c-0.19,0.02-1.24,0.77-0.98,0.72s0.67-0.45,0.65-0.24
		S261.57,554.89,261.8,554.72L261.8,554.72z"/>
	<path class="st4" d="M257.29,538.69c0.09-0.39,0.38-0.62,0.99-0.3c0.71,0.37,0.85,1.29,1.37,1.89c0.48,0.56,0.45,0.89,0.21,1.15
		c0-0.18,0.06-0.24-0.37-0.93c-0.44-0.7-1.05-1.53-1.32-1.66C257.8,538.67,257.49,538.43,257.29,538.69L257.29,538.69z"/>
	<path class="st9" d="M257.44,539.52c0,0-0.26-0.73,0-0.82c0.26-0.08,0.71,0.3,0.73,0.42c0.02,0.11-0.36,0.06-0.51-0.06
		C257.52,538.94,257.44,539.28,257.44,539.52L257.44,539.52z"/>
	<path class="st9" d="M267.25,555.01c0.03-0.15,0.06-0.22,0.24-0.25s1.27,0.16,1.26,0.27s-0.85,0.01-0.97,0.13s0.25,0.15,0.09,0.22
		c-0.15,0.06-0.17-0.01-0.27,0c-0.11,0.01-0.35,0.17-0.41,0.22c-0.05,0.04-0.12,0-0.03-0.16S267.27,555.04,267.25,555.01
		L267.25,555.01z"/>
	<path class="st4" d="M267.81,536.29c0.28-0.09,0.6-0.08,0.79,0.52c0.26,0.82-0.87,1.74-0.97,2.19s-0.19,0.71-0.39,0.74
		c-0.05,0.01-0.14-0.01-0.24-0.04c0.05-0.06,0.1-0.16,0.14-0.3c0.07-0.3,0.09-0.32,0.67-1.21
		C268.38,537.33,268.34,536.42,267.81,536.29L267.81,536.29z"/>
	<path class="st4" d="M269.23,552.11c0,0-0.53-0.28-0.68-0.39s-0.25-0.16-0.12-0.16C268.56,551.55,269.24,552.04,269.23,552.11
		L269.23,552.11z"/>
	<path class="st4" d="M268.76,552.49c0,0-0.46-0.48-0.67-0.55c-0.25-0.08-0.12-0.02-0.05,0.02
		C268.21,552.09,268.76,552.56,268.76,552.49L268.76,552.49z"/>
	<path class="st4" d="M269.14,551.22c0.06,0.03,0.36,0.05,0.36-0.02S269.21,551.15,269.14,551.22L269.14,551.22z"/>
	<path class="st9" d="M267.21,551.67c-0.01-0.19-0.19-0.52-0.03-0.59c0.15-0.06,0.26-0.07,0.35-0.02c0.1,0.05,0.43,0.11,0.33,0.13
		c-0.1,0.02-0.4-0.07-0.32,0.1c0.08,0.17,0.28,0.33,0.12,0.29s-0.27,0.16-0.33,0.25C267.26,551.91,267.22,551.69,267.21,551.67
		L267.21,551.67z"/>
	<path class="st1" d="M251.02,541.86c-0.82-0.45-1.97-1.28-1.93-1.99c0.06-1.14,4.46-0.07,5.07,0.09
		c4.78,1.31,16.33,6.33,19.73,10.02c2.03,2.21-0.14,2.06-2.12,1.63c-0.02,0.05-0.04,0.1-0.06,0.14c2.31,0.58,5.01,0.73,2.73-1.94
		c-3.35-3.92-15.25-9.16-20.14-10.55c-0.96-0.27-6.22-1.67-5.94,0.71c0.13,1.14,1.27,2.06,2.3,2.6
		C250.77,542.33,250.89,542.09,251.02,541.86L251.02,541.86z"/>
</g>
</svg>
